<svg width="341" height="280" viewBox="0 0 341 280" fill="none" xmlns="http://www.w3.org/2000/svg" xmlns:xlink="http://www.w3.org/1999/xlink">
<rect width="341" height="280" fill="#F5F5F5"/>
<circle cx="4" cy="20" r="4" fill="black"/>
<mask id="mask0_0_1" style="mask-type:luminance" maskUnits="userSpaceOnUse" x="61" y="0" width="280" height="280">
<path d="M201 280C278.32 280 341 217.32 341 140C341 62.6801 278.32 0 201 0C123.68 0 61 62.6801 61 140C61 217.32 123.68 280 201 280Z" fill="white"/>
</mask>
<g mask="url(#mask0_0_1)">
<path d="M201 280C278.32 280 341 217.32 341 140C341 62.6801 278.32 0 201 0C123.68 0 61 62.6801 61 140C61 217.32 123.68 280 201 280Z" fill="white"/>
<path d="M253 206H149V233H253V206Z" fill="white"/>
<path d="M118.5 37.5C125.321 31.5605 136.395 24.222 144.553 20L147 23.9767C139.275 27.9755 127.46 35.3747 121 41L118.5 37.5Z" fill="black" stroke="black"/>
<path d="M283.5 37.5C276.679 31.5605 265.605 24.222 257.447 20L255 23.9767C262.725 27.9755 274.54 35.3747 281 41L283.5 37.5Z" fill="white" stroke="black"/>
<path d="M152 17.5981C160.553 14.1211 169.562 11.5695 178.825 10L180 14.4444C171.227 15.9298 162.6 18.708 154.5 22L152 17.5981Z" stroke="black"/>
<path d="M187 8.72367C196.298 7.75878 205.702 7.75878 215 8.72367L214.5 13C205.699 12.0871 196.301 12.0871 187.5 13L187 8.72367Z" stroke="black"/>
<path d="M223.175 10C232.438 11.5695 241.447 14.1211 250 17.5981L247.5 22C239.4 18.708 230.773 15.9298 222 14.4444L223.175 10Z" stroke="black"/>
<path d="M202.555 32.5389C203.127 32.9288 203.555 33.3815 203.838 33.8972C204.121 34.4065 204.262 34.9787 204.262 35.6138C204.262 36.2992 204.074 36.9343 203.696 37.5191C203.325 38.0977 202.785 38.5378 202.074 38.8397C201.363 39.1352 200.433 39.283 199.282 39.283C197.785 39.283 196.66 39.0503 195.905 38.585C195.484 38.3209 195.273 38.0065 195.273 37.6418C195.273 37.3651 195.365 37.1324 195.547 36.9438C195.736 36.7488 195.962 36.6514 196.226 36.6514C196.408 36.6514 196.597 36.7143 196.792 36.84C197.069 37.0287 197.33 37.1544 197.575 37.2173C197.952 37.3053 198.471 37.3494 199.131 37.3494C200.257 37.3494 201.071 37.2047 201.574 36.9155C202.077 36.6199 202.329 36.2049 202.329 35.6704C202.329 35.2743 202.181 34.8938 201.885 34.5291C201.596 34.1581 201.206 33.872 200.716 33.6708C200.433 33.5576 199.955 33.479 199.282 33.435C198.961 33.4161 198.713 33.3187 198.537 33.1426C198.367 32.9602 198.282 32.737 198.282 32.4729C198.282 32.1962 198.377 31.9636 198.565 31.7749C198.754 31.5863 198.993 31.492 199.282 31.492C199.923 31.492 200.266 31.4888 200.31 31.4825C200.562 31.4574 200.813 31.3756 201.065 31.2373C201.316 31.0989 201.517 30.9103 201.668 30.6713C201.826 30.4261 201.904 30.1746 201.904 29.9168C201.904 29.508 201.722 29.1559 201.357 28.8604C200.999 28.5585 200.458 28.4076 199.735 28.4076C198.804 28.4076 198.094 28.678 197.603 29.2188C197.458 29.376 197.342 29.4766 197.254 29.5206C197.122 29.5898 196.974 29.6244 196.811 29.6244C196.547 29.6244 196.32 29.53 196.132 29.3414C195.943 29.1528 195.849 28.9201 195.849 28.6434C195.849 28.2095 196.138 27.7882 196.716 27.3795C197.559 26.7821 198.612 26.4834 199.876 26.4834C201.071 26.4834 202.03 26.823 202.753 27.5021C203.476 28.1812 203.838 28.9987 203.838 29.9545C203.838 30.4513 203.731 30.9166 203.517 31.3505C203.303 31.7781 202.983 32.1742 202.555 32.5389ZM214.157 32.5389C214.729 32.9288 215.156 33.3815 215.439 33.8972C215.722 34.4065 215.864 34.9787 215.864 35.6138C215.864 36.2992 215.675 36.9343 215.298 37.5191C214.927 38.0977 214.386 38.5378 213.676 38.8397C212.965 39.1352 212.034 39.283 210.884 39.283C209.387 39.283 208.262 39.0503 207.507 38.585C207.086 38.3209 206.875 38.0065 206.875 37.6418C206.875 37.3651 206.966 37.1324 207.149 36.9438C207.337 36.7488 207.564 36.6514 207.828 36.6514C208.01 36.6514 208.199 36.7143 208.394 36.84C208.67 37.0287 208.931 37.1544 209.176 37.2173C209.554 37.3053 210.073 37.3494 210.733 37.3494C211.858 37.3494 212.673 37.2047 213.176 36.9155C213.679 36.6199 213.93 36.2049 213.93 35.6704C213.93 35.2743 213.783 34.8938 213.487 34.5291C213.198 34.1581 212.808 33.872 212.317 33.6708C212.034 33.5576 211.557 33.479 210.884 33.435C210.563 33.4161 210.315 33.3187 210.139 33.1426C209.969 32.9602 209.884 32.737 209.884 32.4729C209.884 32.1962 209.978 31.9636 210.167 31.7749C210.355 31.5863 210.594 31.492 210.884 31.492C211.525 31.492 211.868 31.4888 211.912 31.4825C212.163 31.4574 212.415 31.3756 212.666 31.2373C212.918 31.0989 213.119 30.9103 213.27 30.6713C213.427 30.4261 213.506 30.1746 213.506 29.9168C213.506 29.508 213.323 29.1559 212.959 28.8604C212.6 28.5585 212.06 28.4076 211.336 28.4076C210.406 28.4076 209.695 28.678 209.205 29.2188C209.06 29.376 208.944 29.4766 208.856 29.5206C208.724 29.5898 208.576 29.6244 208.412 29.6244C208.148 29.6244 207.922 29.53 207.733 29.3414C207.545 29.1528 207.45 28.9201 207.45 28.6434C207.45 28.2095 207.74 27.7882 208.318 27.3795C209.161 26.7821 210.214 26.4834 211.478 26.4834C212.673 26.4834 213.632 26.823 214.355 27.5021C215.078 28.1812 215.439 28.9987 215.439 29.9545C215.439 30.4513 215.333 30.9166 215.119 31.3505C214.905 31.7781 214.584 32.1742 214.157 32.5389Z" fill="black"/>
<path d="M188.818 26.5H184.818L183 34.7564H186.636L185.182 40.5L191 31.8846H187.364L188.818 26.5Z" stroke="black"/>
<path d="M115.016 68.1953L117.115 62.082C117.206 61.8477 117.33 61.6784 117.486 61.5742C117.649 61.4701 117.88 61.418 118.18 61.418H119.781C119.99 61.418 120.146 61.4766 120.25 61.5938C120.361 61.7044 120.416 61.8672 120.416 62.082C120.416 62.3294 120.348 62.502 120.211 62.5996C120.081 62.6908 119.837 62.7363 119.479 62.7363H119.322L119.596 71.623H119.82C120.243 71.623 120.527 71.6719 120.67 71.7695C120.813 71.8607 120.885 72.0365 120.885 72.2969C120.885 72.5247 120.826 72.7005 120.709 72.8242C120.592 72.9414 120.423 73 120.201 73H117.457C117.079 73 116.822 72.9479 116.686 72.8438C116.549 72.7396 116.48 72.5573 116.48 72.2969C116.48 72.043 116.562 71.8672 116.725 71.7695C116.887 71.6719 117.2 71.623 117.662 71.623H118.082L117.877 63.2246L115.943 68.8398C115.846 69.1133 115.725 69.3021 115.582 69.4062C115.439 69.5104 115.224 69.5625 114.938 69.5625C114.664 69.5625 114.456 69.5104 114.312 69.4062C114.169 69.2956 114.052 69.1068 113.961 68.8398L111.998 63.2246L111.822 71.623H112.477C112.861 71.623 113.131 71.6751 113.287 71.7793C113.443 71.8835 113.521 72.056 113.521 72.2969C113.521 72.5573 113.453 72.7396 113.316 72.8438C113.18 72.9479 112.919 73 112.535 73H109.801C109.573 73 109.4 72.9414 109.283 72.8242C109.173 72.707 109.117 72.5312 109.117 72.2969C109.117 72.0365 109.189 71.8607 109.332 71.7695C109.475 71.6719 109.758 71.623 110.182 71.623H110.396L110.68 62.7363H110.523C110.165 62.7363 109.918 62.6908 109.781 62.5996C109.645 62.502 109.576 62.3294 109.576 62.082C109.576 61.8672 109.632 61.7044 109.742 61.5938C109.853 61.4766 110.012 61.418 110.221 61.418H111.822C112.122 61.418 112.35 61.4701 112.506 61.5742C112.669 61.6784 112.792 61.8477 112.877 62.082L115.016 68.1953ZM132.291 67.1992C132.291 68.9831 131.796 70.4479 130.807 71.5938C129.817 72.7331 128.551 73.3027 127.008 73.3027C125.478 73.3027 124.215 72.7298 123.219 71.584C122.229 70.4382 121.734 68.9766 121.734 67.1992C121.734 65.4023 122.226 63.9375 123.209 62.8047C124.192 61.6654 125.458 61.0957 127.008 61.0957C128.551 61.0957 129.817 61.6686 130.807 62.8145C131.796 63.9603 132.291 65.4219 132.291 67.1992ZM127.008 71.916C128.102 71.916 128.961 71.4993 129.586 70.666C130.217 69.8262 130.533 68.6706 130.533 67.1992C130.533 65.7279 130.217 64.5755 129.586 63.7422C128.961 62.9023 128.102 62.4824 127.008 62.4824C125.908 62.4824 125.045 62.8991 124.42 63.7324C123.801 64.5592 123.492 65.7148 123.492 67.1992C123.492 68.6706 123.805 69.8262 124.43 70.666C125.061 71.4993 125.921 71.916 127.008 71.916ZM136.363 71.623H136.861H137.584C137.936 71.623 138.186 71.6751 138.336 71.7793C138.486 71.8835 138.561 72.056 138.561 72.2969C138.561 72.5638 138.489 72.7493 138.346 72.8535C138.209 72.9512 137.903 73 137.428 73H134.986H134.527C134.293 73 134.117 72.9414 134 72.8242C133.883 72.707 133.824 72.5312 133.824 72.2969C133.824 72.0365 133.889 71.8607 134.02 71.7695C134.156 71.6719 134.417 71.623 134.801 71.623H134.986V62.8242H134.742C134.195 62.8242 133.824 62.7721 133.629 62.668C133.44 62.5638 133.346 62.3815 133.346 62.1211C133.346 61.8802 133.427 61.7077 133.59 61.6035C133.759 61.4928 134.029 61.4375 134.4 61.4375C134.4 61.4375 134.465 61.4342 134.596 61.4277C134.726 61.4212 134.856 61.418 134.986 61.418H135.904C136.204 61.418 136.412 61.4538 136.529 61.5254C136.653 61.5905 136.796 61.763 136.959 62.043L141.881 70.5391V62.8242H141.5H140.807C140.455 62.8242 140.198 62.7689 140.035 62.6582C139.879 62.541 139.801 62.362 139.801 62.1211C139.801 61.8542 139.869 61.6719 140.006 61.5742C140.143 61.4701 140.429 61.418 140.865 61.418H143.199H143.668C143.902 61.418 144.075 61.4766 144.186 61.5938C144.303 61.7109 144.361 61.8867 144.361 62.1211C144.361 62.3815 144.29 62.5638 144.146 62.668C144.01 62.7721 143.756 62.8242 143.385 62.8242H143.268V72.6582C143.268 72.847 143.222 72.9772 143.131 73.0488C143.046 73.1204 142.844 73.1562 142.525 73.1562C142.206 73.1562 142.008 73.1367 141.93 73.0977C141.858 73.0651 141.734 72.8991 141.559 72.5996L136.363 63.6445V71.623ZM149.117 71.3984C149.117 70.8906 149.293 70.474 149.645 70.1484C150.003 69.8229 150.465 69.6602 151.031 69.6602C151.611 69.6602 152.076 69.8197 152.428 70.1387C152.779 70.4577 152.955 70.8776 152.955 71.3984C152.955 71.9193 152.776 72.3392 152.418 72.6582C152.066 72.9772 151.604 73.1367 151.031 73.1367C150.458 73.1367 149.996 72.9772 149.645 72.6582C149.293 72.3392 149.117 71.9193 149.117 71.3984ZM163.043 61.7598C162.294 61.7598 161.712 62.2025 161.295 63.0879C160.878 63.9733 160.67 65.2233 160.67 66.8379C160.67 68.459 160.878 69.7155 161.295 70.6074C161.712 71.4928 162.294 71.9355 163.043 71.9355C163.798 71.9355 164.384 71.4928 164.801 70.6074C165.217 69.7155 165.426 68.459 165.426 66.8379C165.426 65.2233 165.217 63.9733 164.801 63.0879C164.384 62.2025 163.798 61.7598 163.043 61.7598ZM163.043 73.3223C161.819 73.3223 160.846 72.7461 160.123 71.5938C159.407 70.4349 159.049 68.8496 159.049 66.8379C159.049 64.8327 159.407 63.2539 160.123 62.1016C160.846 60.9427 161.819 60.3633 163.043 60.3633C164.267 60.3633 165.24 60.9427 165.963 62.1016C166.686 63.2604 167.047 64.8392 167.047 66.8379C167.047 68.8366 166.686 70.4186 165.963 71.584C165.24 72.7428 164.267 73.3223 163.043 73.3223ZM177.281 67.1016C176.93 67.5508 176.542 67.8861 176.119 68.1074C175.696 68.3288 175.23 68.4395 174.723 68.4395C173.694 68.4395 172.818 68.0553 172.096 67.2871C171.38 66.5124 171.021 65.5618 171.021 64.4355C171.021 63.2507 171.367 62.2773 172.057 61.5156C172.753 60.7474 173.642 60.3633 174.723 60.3633C175.999 60.3633 177.027 60.8776 177.809 61.9062C178.59 62.9284 178.98 64.2858 178.98 65.9785C178.98 68.2116 178.408 69.9954 177.262 71.3301C176.122 72.6582 174.596 73.3223 172.682 73.3223C172.076 73.3223 171.673 73.2767 171.471 73.1855C171.275 73.0944 171.178 72.9251 171.178 72.6777C171.178 72.2611 171.565 72.043 172.34 72.0234C172.854 72.0104 173.261 71.9746 173.561 71.916C174.589 71.7272 175.423 71.2161 176.061 70.3828C176.705 69.5495 177.112 68.4557 177.281 67.1016ZM177.076 64.4844C177.076 63.6771 176.861 63.0228 176.432 62.5215C176.008 62.0137 175.465 61.7598 174.801 61.7598C174.169 61.7598 173.658 61.9974 173.268 62.4727C172.877 62.9479 172.682 63.5697 172.682 64.3379C172.682 65.1322 172.887 65.7799 173.297 66.2812C173.707 66.776 174.234 67.0234 174.879 67.0234C175.51 67.0234 176.035 66.7858 176.451 66.3105C176.868 65.8288 177.076 65.2201 177.076 64.4844ZM185.152 71.3984C185.152 70.8906 185.328 70.474 185.68 70.1484C186.038 69.8229 186.5 69.6602 187.066 69.6602C187.646 69.6602 188.111 69.8197 188.463 70.1387C188.814 70.4577 188.99 70.8776 188.99 71.3984C188.99 71.9193 188.811 72.3392 188.453 72.6582C188.102 72.9772 187.639 73.1367 187.066 73.1367C186.493 73.1367 186.031 72.9772 185.68 72.6582C185.328 72.3392 185.152 71.9193 185.152 71.3984ZM196.744 62.5215C196.66 62.5345 196.594 62.5443 196.549 62.5508C196.51 62.5573 196.474 62.5605 196.441 62.5605C196.24 62.5605 196.074 62.5052 195.943 62.3945C195.82 62.2773 195.758 62.1243 195.758 61.9355C195.758 61.7793 195.813 61.6426 195.924 61.5254C196.035 61.4082 196.194 61.3203 196.402 61.2617L199.303 60.4805C199.374 60.4609 199.443 60.4479 199.508 60.4414C199.579 60.4284 199.651 60.4219 199.723 60.4219C199.846 60.4219 199.944 60.4805 200.016 60.5977C200.087 60.7083 200.123 60.8613 200.123 61.0566V71.623H201.686C202.265 71.623 202.633 71.6719 202.789 71.7695C202.945 71.8607 203.023 72.0365 203.023 72.2969C203.023 72.5312 202.958 72.707 202.828 72.8242C202.698 72.9414 202.503 73 202.242 73H196.402C196.142 73 195.947 72.9414 195.816 72.8242C195.686 72.707 195.621 72.5312 195.621 72.2969C195.621 72.0365 195.699 71.8607 195.855 71.7695C196.012 71.6719 196.38 71.623 196.959 71.623H198.58V62.082L196.744 62.5215ZM211.09 61.7598C210.341 61.7598 209.758 62.2025 209.342 63.0879C208.925 63.9733 208.717 65.2233 208.717 66.8379C208.717 68.459 208.925 69.7155 209.342 70.6074C209.758 71.4928 210.341 71.9355 211.09 71.9355C211.845 71.9355 212.431 71.4928 212.848 70.6074C213.264 69.7155 213.473 68.459 213.473 66.8379C213.473 65.2233 213.264 63.9733 212.848 63.0879C212.431 62.2025 211.845 61.7598 211.09 61.7598ZM211.09 73.3223C209.866 73.3223 208.893 72.7461 208.17 71.5938C207.454 70.4349 207.096 68.8496 207.096 66.8379C207.096 64.8327 207.454 63.2539 208.17 62.1016C208.893 60.9427 209.866 60.3633 211.09 60.3633C212.314 60.3633 213.287 60.9427 214.01 62.1016C214.732 63.2604 215.094 64.8392 215.094 66.8379C215.094 68.8366 214.732 70.4186 214.01 71.584C213.287 72.7428 212.314 73.3223 211.09 73.3223Z" fill="black"/>
<path d="M165 62L161 71M244.5 130.5L241 139.5" stroke="black" stroke-width="0.8"/>
<path d="M212.5 62L209 71" stroke="black" stroke-width="0.8"/>
<path d="M88.406 121V114.163H97.098V94.712H88.353V89.571C89.7663 89.465 91.3033 89.1647 92.964 88.67C94.66 88.1753 96.3207 87.5747 97.946 86.868C99.6067 86.126 101.091 85.3487 102.398 84.536H105.79V114.163H114.005V121H88.406ZM132.661 121.636C129.552 121.636 126.937 121.194 124.817 120.311C122.697 119.428 121.089 118.191 119.994 116.601C118.899 115.011 118.351 113.138 118.351 110.983C118.351 108.898 118.846 107.185 119.835 105.842C120.86 104.464 122.308 103.333 124.181 102.45C122.485 101.249 121.284 100.012 120.577 98.74C119.87 97.468 119.517 96.0193 119.517 94.394C119.517 92.274 120.065 90.4367 121.16 88.882C122.255 87.3273 123.775 86.126 125.718 85.278C127.697 84.3947 130.011 83.953 132.661 83.953C135.276 83.953 137.572 84.3947 139.551 85.278C141.53 86.126 143.067 87.3273 144.162 88.882C145.293 90.4367 145.858 92.274 145.858 94.394C145.858 96.0547 145.487 97.5387 144.745 98.846C144.038 100.118 142.837 101.319 141.141 102.45C143.049 103.333 144.498 104.464 145.487 105.842C146.512 107.185 147.024 108.898 147.024 110.983C147.024 113.138 146.459 115.011 145.328 116.601C144.233 118.191 142.625 119.428 140.505 120.311C138.385 121.194 135.77 121.636 132.661 121.636ZM132.661 115.329C134.357 115.329 135.7 114.905 136.689 114.057C137.714 113.209 138.226 111.99 138.226 110.4C138.226 108.775 137.714 107.556 136.689 106.743C135.664 105.895 134.322 105.471 132.661 105.471C131.036 105.471 129.711 105.895 128.686 106.743C127.661 107.556 127.149 108.775 127.149 110.4C127.149 111.99 127.644 113.209 128.633 114.057C129.622 114.905 130.965 115.329 132.661 115.329ZM132.661 99.376C134.145 99.376 135.382 99.005 136.371 98.263C137.396 97.521 137.908 96.3727 137.908 94.818C137.908 93.2987 137.413 92.1503 136.424 91.373C135.47 90.5957 134.216 90.207 132.661 90.207C131.106 90.207 129.852 90.5957 128.898 91.373C127.979 92.1503 127.52 93.2987 127.52 94.818C127.52 96.3727 127.997 97.521 128.951 98.263C129.905 99.005 131.142 99.376 132.661 99.376ZM153.543 101.92V93.069H162.712V101.92H153.543ZM153.543 121V112.149H162.712V121H153.543ZM172.357 121V114.163H181.049V94.712H172.304V89.571C173.718 89.465 175.255 89.1647 176.915 88.67C178.611 88.1753 180.272 87.5747 181.897 86.868C183.558 86.126 185.042 85.3487 186.349 84.536H189.741V114.163H197.956V121H172.357ZM216.718 121.636C213.538 121.636 210.871 121.177 208.715 120.258C206.595 119.304 205.005 118.032 203.945 116.442C202.885 114.817 202.355 112.979 202.355 110.93V109.976H210.411V110.983C210.411 112.29 210.906 113.333 211.895 114.11C212.885 114.887 214.351 115.276 216.294 115.276C218.238 115.276 219.686 114.834 220.64 113.951C221.594 113.032 222.071 111.743 222.071 110.082C222.071 108.916 221.842 107.997 221.382 107.326C220.923 106.655 220.305 106.178 219.527 105.895C218.785 105.577 217.955 105.418 217.036 105.418H213.591V99.482H216.665C217.549 99.482 218.326 99.323 218.997 99.005C219.704 98.6517 220.252 98.1393 220.64 97.468C221.064 96.7967 221.276 95.9487 221.276 94.924C221.276 93.97 221.082 93.1573 220.693 92.486C220.305 91.7793 219.722 91.2493 218.944 90.896C218.202 90.5073 217.319 90.313 216.294 90.313C215.34 90.313 214.457 90.4897 213.644 90.843C212.867 91.1963 212.249 91.691 211.789 92.327C211.365 92.963 211.153 93.705 211.153 94.553V95.242H203.362V93.917C203.362 92.009 203.892 90.313 204.952 88.829C206.048 87.3097 207.602 86.126 209.616 85.278C211.63 84.3947 214.015 83.953 216.771 83.953C219.492 83.953 221.842 84.377 223.82 85.225C225.799 86.0377 227.318 87.2037 228.378 88.723C229.438 90.207 229.968 91.9207 229.968 93.864C229.968 95.1713 229.721 96.3727 229.226 97.468C228.767 98.528 228.113 99.429 227.265 100.171C226.453 100.913 225.499 101.514 224.403 101.973V102.185C226.382 102.786 227.954 103.863 229.12 105.418C230.286 106.937 230.869 108.845 230.869 111.142C230.834 113.191 230.269 115.011 229.173 116.601C228.078 118.156 226.488 119.392 224.403 120.311C222.319 121.194 219.757 121.636 216.718 121.636Z" fill="black"/>
<path d="M245.954 121.232C245.117 121.232 244.332 121.155 243.597 121C242.863 120.858 242.213 120.62 241.646 120.285C241.093 119.95 240.655 119.513 240.333 118.972C240.011 118.418 239.85 117.742 239.85 116.943C239.85 116.892 239.85 116.834 239.85 116.77C239.85 116.705 239.856 116.654 239.869 116.615H243.211C243.211 116.654 243.205 116.705 243.192 116.77C243.192 116.821 243.192 116.866 243.192 116.905C243.192 117.317 243.295 117.652 243.501 117.909C243.72 118.154 244.022 118.334 244.409 118.45C244.795 118.553 245.246 118.605 245.761 118.605C246.044 118.605 246.308 118.592 246.553 118.566C246.798 118.54 247.017 118.495 247.21 118.431C247.403 118.366 247.57 118.289 247.712 118.199C247.867 118.096 247.976 117.98 248.04 117.851C248.118 117.71 248.156 117.549 248.156 117.368C248.156 117.072 248.04 116.827 247.809 116.634C247.59 116.441 247.287 116.28 246.901 116.151C246.527 116.023 246.102 115.9 245.626 115.784C245.149 115.668 244.653 115.546 244.138 115.417C243.623 115.289 243.127 115.128 242.651 114.934C242.174 114.741 241.743 114.497 241.357 114.2C240.983 113.904 240.681 113.537 240.449 113.099C240.23 112.649 240.12 112.108 240.12 111.477C240.12 110.781 240.268 110.182 240.565 109.68C240.861 109.165 241.267 108.746 241.782 108.425C242.31 108.103 242.915 107.871 243.597 107.729C244.28 107.575 245.008 107.497 245.78 107.497C246.54 107.497 247.248 107.575 247.905 107.729C248.575 107.884 249.167 108.128 249.682 108.463C250.198 108.785 250.597 109.197 250.88 109.699C251.176 110.189 251.331 110.781 251.344 111.477V111.708H248.021V111.573C248.021 111.277 247.937 111.019 247.77 110.801C247.615 110.569 247.377 110.388 247.055 110.26C246.733 110.118 246.334 110.047 245.858 110.047C245.381 110.047 244.975 110.092 244.641 110.182C244.319 110.273 244.068 110.401 243.887 110.569C243.72 110.736 243.636 110.936 243.636 111.168C243.636 111.451 243.746 111.683 243.965 111.863C244.196 112.043 244.505 112.198 244.892 112.327C245.278 112.455 245.71 112.578 246.186 112.694C246.662 112.797 247.152 112.913 247.654 113.041C248.169 113.157 248.665 113.312 249.142 113.505C249.618 113.685 250.049 113.923 250.436 114.22C250.822 114.503 251.125 114.857 251.344 115.282C251.575 115.707 251.691 116.222 251.691 116.827C251.691 117.883 251.44 118.733 250.938 119.377C250.449 120.021 249.766 120.491 248.89 120.788C248.028 121.084 247.049 121.232 245.954 121.232ZM252.624 121L257.608 107.729H261.761L266.745 121H263.055L262.263 118.701H256.97L256.178 121H252.624ZM257.801 116.113H261.413L260.467 113.312C260.415 113.17 260.351 112.996 260.273 112.79C260.209 112.571 260.138 112.346 260.061 112.114C259.996 111.869 259.932 111.625 259.868 111.38C259.803 111.135 259.739 110.923 259.675 110.743H259.539C259.488 110.987 259.411 111.264 259.307 111.573C259.217 111.882 259.121 112.191 259.018 112.5C258.928 112.81 258.844 113.08 258.767 113.312L257.801 116.113ZM270.068 121V110.569H265.761V107.729H277.834V110.569H273.526V121H270.068ZM279.781 121V107.729H283.239V121H279.781ZM291.644 121.232C290.807 121.232 290.021 121.155 289.287 121C288.553 120.858 287.903 120.62 287.336 120.285C286.782 119.95 286.345 119.513 286.023 118.972C285.701 118.418 285.54 117.742 285.54 116.943C285.54 116.892 285.54 116.834 285.54 116.77C285.54 116.705 285.546 116.654 285.559 116.615H288.901C288.901 116.654 288.894 116.705 288.882 116.77C288.882 116.821 288.882 116.866 288.882 116.905C288.882 117.317 288.985 117.652 289.191 117.909C289.41 118.154 289.712 118.334 290.098 118.45C290.485 118.553 290.936 118.605 291.451 118.605C291.734 118.605 291.998 118.592 292.243 118.566C292.487 118.54 292.706 118.495 292.899 118.431C293.093 118.366 293.26 118.289 293.402 118.199C293.556 118.096 293.666 117.98 293.73 117.851C293.807 117.71 293.846 117.549 293.846 117.368C293.846 117.072 293.73 116.827 293.498 116.634C293.279 116.441 292.977 116.28 292.59 116.151C292.217 116.023 291.792 115.9 291.315 115.784C290.839 115.668 290.343 115.546 289.828 115.417C289.313 115.289 288.817 115.128 288.341 114.934C287.864 114.741 287.433 114.497 287.046 114.2C286.673 113.904 286.37 113.537 286.138 113.099C285.92 112.649 285.81 112.108 285.81 111.477C285.81 110.781 285.958 110.182 286.254 109.68C286.551 109.165 286.956 108.746 287.471 108.425C287.999 108.103 288.605 107.871 289.287 107.729C289.97 107.575 290.697 107.497 291.47 107.497C292.23 107.497 292.938 107.575 293.595 107.729C294.265 107.884 294.857 108.128 295.372 108.463C295.887 108.785 296.286 109.197 296.57 109.699C296.866 110.189 297.02 110.781 297.033 111.477V111.708H293.711V111.573C293.711 111.277 293.627 111.019 293.46 110.801C293.305 110.569 293.067 110.388 292.745 110.26C292.423 110.118 292.024 110.047 291.547 110.047C291.071 110.047 290.665 110.092 290.33 110.182C290.008 110.273 289.757 110.401 289.577 110.569C289.41 110.736 289.326 110.936 289.326 111.168C289.326 111.451 289.435 111.683 289.654 111.863C289.886 112.043 290.195 112.198 290.581 112.327C290.968 112.455 291.399 112.578 291.876 112.694C292.352 112.797 292.842 112.913 293.344 113.041C293.859 113.157 294.355 113.312 294.831 113.505C295.308 113.685 295.739 113.923 296.125 114.22C296.512 114.503 296.814 114.857 297.033 115.282C297.265 115.707 297.381 116.222 297.381 116.827C297.381 117.883 297.13 118.733 296.628 119.377C296.138 120.021 295.456 120.491 294.58 120.788C293.717 121.084 292.739 121.232 291.644 121.232ZM299.608 121V107.729H309.788V110.433H303.065V113.292H308.977V115.939H303.065V121H299.608ZM315.187 121V115.746L309.991 107.729H313.989L316.964 112.694H317.061L320.016 107.729H323.802L318.664 115.746V121H315.187Z" fill="black"/>
<path d="M98.8184 131.736V135.682H100.84C101.751 135.682 102.435 135.519 102.891 135.193C103.353 134.861 103.584 134.37 103.584 133.719C103.584 133.061 103.359 132.566 102.91 132.234C102.461 131.902 101.79 131.736 100.898 131.736H98.8184ZM98.8184 140.623H99.4824C99.86 140.623 100.127 140.675 100.283 140.779C100.439 140.883 100.518 141.056 100.518 141.297C100.518 141.557 100.449 141.74 100.312 141.844C100.176 141.948 99.9186 142 99.541 142H96.2598C96.0384 142 95.8691 141.941 95.752 141.824C95.6348 141.701 95.5762 141.525 95.5762 141.297C95.5762 141.056 95.6413 140.883 95.7715 140.779C95.9017 140.675 96.1165 140.623 96.416 140.623H96.7383H97.3047V131.736H96.7383C96.25 131.736 95.9342 131.691 95.791 131.6C95.6478 131.508 95.5762 131.336 95.5762 131.082C95.5762 130.861 95.6315 130.695 95.7422 130.584C95.8594 130.473 96.0319 130.418 96.2598 130.418H100.381C101.377 130.418 102.119 130.467 102.607 130.564C103.102 130.656 103.519 130.815 103.857 131.043C104.294 131.336 104.635 131.723 104.883 132.205C105.137 132.687 105.264 133.204 105.264 133.758C105.264 134.507 105.033 135.151 104.57 135.691C104.115 136.225 103.477 136.596 102.656 136.805C102.826 136.902 102.975 137.016 103.105 137.146C103.242 137.277 103.372 137.433 103.496 137.615L105.459 140.623H105.781C106.146 140.623 106.396 140.675 106.533 140.779C106.67 140.877 106.738 141.049 106.738 141.297C106.738 141.525 106.68 141.701 106.562 141.824C106.452 141.941 106.286 142 106.064 142H104.961C104.642 142 104.329 141.766 104.023 141.297C103.984 141.258 103.955 141.225 103.936 141.199L102.061 138.357C101.676 137.778 101.357 137.404 101.104 137.234C100.856 137.065 100.527 136.98 100.117 136.98H98.8184V140.623ZM108.789 131.824H108.633C108.242 131.824 107.972 131.772 107.822 131.668C107.679 131.564 107.607 131.382 107.607 131.121C107.607 130.88 107.669 130.704 107.793 130.594C107.917 130.477 108.102 130.418 108.35 130.418H108.789H110.791C111.318 130.418 111.654 130.47 111.797 130.574C111.94 130.672 112.012 130.854 112.012 131.121C112.012 131.382 111.927 131.564 111.758 131.668C111.589 131.772 111.266 131.824 110.791 131.824H110.371V137.176C110.371 137.898 110.404 138.426 110.469 138.758C110.54 139.083 110.654 139.383 110.811 139.656C111.038 140.053 111.354 140.363 111.758 140.584C112.168 140.805 112.62 140.916 113.115 140.916C114.046 140.916 114.723 140.636 115.146 140.076C115.576 139.516 115.791 138.611 115.791 137.361V131.824H115.273C114.766 131.824 114.424 131.775 114.248 131.678C114.079 131.574 113.994 131.388 113.994 131.121C113.994 130.854 114.062 130.672 114.199 130.574C114.336 130.47 114.619 130.418 115.049 130.418H117.207H117.676C117.91 130.418 118.086 130.477 118.203 130.594C118.327 130.711 118.389 130.887 118.389 131.121C118.389 131.382 118.317 131.564 118.174 131.668C118.031 131.772 117.77 131.824 117.393 131.824H117.256V137.576C117.256 139.158 116.901 140.346 116.191 141.141C115.488 141.928 114.427 142.322 113.008 142.322C111.725 142.322 110.7 141.928 109.932 141.141C109.17 140.346 108.789 139.279 108.789 137.938V131.824ZM122.363 140.623H122.861H123.584C123.936 140.623 124.186 140.675 124.336 140.779C124.486 140.883 124.561 141.056 124.561 141.297C124.561 141.564 124.489 141.749 124.346 141.854C124.209 141.951 123.903 142 123.428 142H120.986H120.527C120.293 142 120.117 141.941 120 141.824C119.883 141.707 119.824 141.531 119.824 141.297C119.824 141.036 119.889 140.861 120.02 140.77C120.156 140.672 120.417 140.623 120.801 140.623H120.986V131.824H120.742C120.195 131.824 119.824 131.772 119.629 131.668C119.44 131.564 119.346 131.382 119.346 131.121C119.346 130.88 119.427 130.708 119.59 130.604C119.759 130.493 120.029 130.438 120.4 130.438C120.4 130.438 120.465 130.434 120.596 130.428C120.726 130.421 120.856 130.418 120.986 130.418H121.904C122.204 130.418 122.412 130.454 122.529 130.525C122.653 130.59 122.796 130.763 122.959 131.043L127.881 139.539V131.824H127.5H126.807C126.455 131.824 126.198 131.769 126.035 131.658C125.879 131.541 125.801 131.362 125.801 131.121C125.801 130.854 125.869 130.672 126.006 130.574C126.143 130.47 126.429 130.418 126.865 130.418H129.199H129.668C129.902 130.418 130.075 130.477 130.186 130.594C130.303 130.711 130.361 130.887 130.361 131.121C130.361 131.382 130.29 131.564 130.146 131.668C130.01 131.772 129.756 131.824 129.385 131.824H129.268V141.658C129.268 141.847 129.222 141.977 129.131 142.049C129.046 142.12 128.844 142.156 128.525 142.156C128.206 142.156 128.008 142.137 127.93 142.098C127.858 142.065 127.734 141.899 127.559 141.6L122.363 132.645V140.623Z" fill="black"/>
<path d="M242.996 130.76C242.247 130.76 241.665 131.202 241.248 132.088C240.831 132.973 240.623 134.223 240.623 135.838C240.623 137.459 240.831 138.715 241.248 139.607C241.665 140.493 242.247 140.936 242.996 140.936C243.751 140.936 244.337 140.493 244.754 139.607C245.171 138.715 245.379 137.459 245.379 135.838C245.379 134.223 245.171 132.973 244.754 132.088C244.337 131.202 243.751 130.76 242.996 130.76ZM242.996 142.322C241.772 142.322 240.799 141.746 240.076 140.594C239.36 139.435 239.002 137.85 239.002 135.838C239.002 133.833 239.36 132.254 240.076 131.102C240.799 129.943 241.772 129.363 242.996 129.363C244.22 129.363 245.193 129.943 245.916 131.102C246.639 132.26 247 133.839 247 135.838C247 137.837 246.639 139.419 245.916 140.584C245.193 141.743 244.22 142.322 242.996 142.322ZM253.094 140.398C253.094 139.891 253.27 139.474 253.621 139.148C253.979 138.823 254.441 138.66 255.008 138.66C255.587 138.66 256.053 138.82 256.404 139.139C256.756 139.458 256.932 139.878 256.932 140.398C256.932 140.919 256.753 141.339 256.395 141.658C256.043 141.977 255.581 142.137 255.008 142.137C254.435 142.137 253.973 141.977 253.621 141.658C253.27 141.339 253.094 140.919 253.094 140.398ZM263.621 142C263.276 142 263.019 141.932 262.85 141.795C262.687 141.652 262.605 141.434 262.605 141.141C262.605 140.717 263.23 139.923 264.48 138.758L264.764 138.484C264.952 138.302 265.226 138.042 265.584 137.703C267.837 135.581 268.963 134.035 268.963 133.064C268.963 132.368 268.764 131.805 268.367 131.375C267.97 130.939 267.456 130.721 266.824 130.721C266.414 130.721 266.02 130.805 265.643 130.975C265.271 131.144 264.972 131.372 264.744 131.658C264.705 131.71 264.643 131.798 264.559 131.922C264.318 132.358 264.048 132.576 263.748 132.576C263.514 132.576 263.348 132.505 263.25 132.361C263.152 132.218 263.104 131.945 263.104 131.541C263.104 131.307 263.126 131.137 263.172 131.033C263.217 130.923 263.302 130.805 263.426 130.682C263.842 130.278 264.357 129.959 264.969 129.725C265.587 129.484 266.219 129.363 266.863 129.363C267.944 129.363 268.846 129.712 269.568 130.408C270.298 131.105 270.662 131.961 270.662 132.977C270.662 134.253 269.555 135.949 267.342 138.064C266.775 138.592 266.342 139.005 266.043 139.305L264.842 140.457H269.305C269.331 140.177 269.406 139.965 269.529 139.822C269.66 139.673 269.832 139.598 270.047 139.598C270.262 139.598 270.431 139.669 270.555 139.812C270.678 139.956 270.74 140.151 270.74 140.398C270.74 140.418 270.737 140.454 270.73 140.506C270.724 140.551 270.721 140.584 270.721 140.604L270.643 141.355C270.623 141.557 270.564 141.717 270.467 141.834C270.369 141.945 270.242 142 270.086 142H263.621ZM277.039 140.623H277.693C278.077 140.623 278.348 140.675 278.504 140.779C278.66 140.883 278.738 141.056 278.738 141.297C278.738 141.557 278.67 141.74 278.533 141.844C278.396 141.948 278.136 142 277.752 142H274.412C274.191 142 274.021 141.941 273.904 141.824C273.794 141.701 273.738 141.525 273.738 141.297C273.738 141.056 273.8 140.883 273.924 140.779C274.054 140.675 274.272 140.623 274.578 140.623H274.891H275.516V131.824H274.891C274.396 131.824 274.08 131.775 273.943 131.678C273.807 131.574 273.738 131.388 273.738 131.121C273.738 130.893 273.794 130.721 273.904 130.604C274.021 130.48 274.191 130.418 274.412 130.418H277.752C278.136 130.418 278.396 130.47 278.533 130.574C278.67 130.678 278.738 130.861 278.738 131.121C278.738 131.382 278.65 131.564 278.475 131.668C278.299 131.772 277.967 131.824 277.479 131.824H277.039V135.799L281.111 131.824H280.994H280.779C280.46 131.824 280.229 131.769 280.086 131.658C279.943 131.548 279.871 131.368 279.871 131.121C279.871 130.867 279.926 130.688 280.037 130.584C280.148 130.473 280.327 130.418 280.574 130.418H283.455C283.676 130.418 283.846 130.48 283.963 130.604C284.08 130.721 284.139 130.893 284.139 131.121C284.139 131.375 284.061 131.557 283.904 131.668C283.755 131.772 283.484 131.824 283.094 131.824H282.957L279.178 135.477C279.744 135.594 280.291 135.958 280.818 136.57C281.346 137.182 282.166 138.533 283.279 140.623H283.455C283.859 140.623 284.129 140.672 284.266 140.77C284.402 140.867 284.471 141.043 284.471 141.297C284.471 141.525 284.412 141.701 284.295 141.824C284.184 141.941 284.018 142 283.797 142H282.859C282.651 142 282.498 141.977 282.4 141.932C282.309 141.886 282.215 141.782 282.117 141.619C282.059 141.528 281.697 140.867 281.033 139.637L280.652 138.924C280.242 138.162 279.832 137.592 279.422 137.215C279.012 136.831 278.576 136.606 278.113 136.541L277.039 137.557V140.623ZM291.062 137.195L293.162 131.082C293.253 130.848 293.377 130.678 293.533 130.574C293.696 130.47 293.927 130.418 294.227 130.418H295.828C296.036 130.418 296.193 130.477 296.297 130.594C296.408 130.704 296.463 130.867 296.463 131.082C296.463 131.329 296.395 131.502 296.258 131.6C296.128 131.691 295.883 131.736 295.525 131.736H295.369L295.643 140.623H295.867C296.29 140.623 296.574 140.672 296.717 140.77C296.86 140.861 296.932 141.036 296.932 141.297C296.932 141.525 296.873 141.701 296.756 141.824C296.639 141.941 296.469 142 296.248 142H293.504C293.126 142 292.869 141.948 292.732 141.844C292.596 141.74 292.527 141.557 292.527 141.297C292.527 141.043 292.609 140.867 292.771 140.77C292.934 140.672 293.247 140.623 293.709 140.623H294.129L293.924 132.225L291.99 137.84C291.893 138.113 291.772 138.302 291.629 138.406C291.486 138.51 291.271 138.562 290.984 138.562C290.711 138.562 290.503 138.51 290.359 138.406C290.216 138.296 290.099 138.107 290.008 137.84L288.045 132.225L287.869 140.623H288.523C288.908 140.623 289.178 140.675 289.334 140.779C289.49 140.883 289.568 141.056 289.568 141.297C289.568 141.557 289.5 141.74 289.363 141.844C289.227 141.948 288.966 142 288.582 142H285.848C285.62 142 285.447 141.941 285.33 141.824C285.219 141.707 285.164 141.531 285.164 141.297C285.164 141.036 285.236 140.861 285.379 140.77C285.522 140.672 285.805 140.623 286.229 140.623H286.443L286.727 131.736H286.57C286.212 131.736 285.965 131.691 285.828 131.6C285.691 131.502 285.623 131.329 285.623 131.082C285.623 130.867 285.678 130.704 285.789 130.594C285.9 130.477 286.059 130.418 286.268 130.418H287.869C288.169 130.418 288.396 130.47 288.553 130.574C288.715 130.678 288.839 130.848 288.924 131.082L291.062 137.195Z" fill="black"/>
<path d="M98.6621 161.623H99.3164C99.7005 161.623 99.9707 161.675 100.127 161.779C100.283 161.883 100.361 162.056 100.361 162.297C100.361 162.564 100.293 162.749 100.156 162.854C100.02 162.951 99.7201 163 99.2578 163H97.1191H96.6797C96.4388 163 96.2565 162.941 96.1328 162.824C96.0156 162.707 95.957 162.531 95.957 162.297C95.957 162.043 96.0254 161.867 96.1621 161.77C96.3053 161.672 96.5723 161.623 96.9629 161.623H97.1387V152.824H96.9824C96.5918 152.824 96.3216 152.772 96.1719 152.668C96.0286 152.564 95.957 152.382 95.957 152.121C95.957 151.88 96.0156 151.704 96.1328 151.594C96.2565 151.477 96.4453 151.418 96.6992 151.418H97.1191H99.1602C99.681 151.418 100.01 151.47 100.146 151.574C100.29 151.672 100.361 151.854 100.361 152.121C100.361 152.382 100.273 152.564 100.098 152.668C99.9219 152.772 99.5898 152.824 99.1016 152.824H98.6621V156.223H103.34V152.824H102.676C102.305 152.824 102.038 152.769 101.875 152.658C101.719 152.548 101.641 152.368 101.641 152.121C101.641 151.854 101.712 151.672 101.855 151.574C102.005 151.47 102.367 151.418 102.939 151.418H104.883H105.322C105.557 151.418 105.732 151.477 105.85 151.594C105.973 151.711 106.035 151.887 106.035 152.121C106.035 152.375 105.967 152.557 105.83 152.668C105.693 152.772 105.449 152.824 105.098 152.824H104.863V161.623H105.02C105.41 161.623 105.677 161.675 105.82 161.779C105.964 161.877 106.035 162.049 106.035 162.297C106.035 162.564 105.967 162.749 105.83 162.854C105.693 162.951 105.378 163 104.883 163H102.861C102.334 163 101.999 162.951 101.855 162.854C101.712 162.749 101.641 162.564 101.641 162.297C101.641 162.043 101.725 161.867 101.895 161.77C102.064 161.672 102.386 161.623 102.861 161.623H103.34V157.561H98.6621V161.623ZM108.828 163H108.369C108.135 163 107.956 162.941 107.832 162.824C107.715 162.707 107.656 162.531 107.656 162.297C107.656 162.036 107.725 161.861 107.861 161.77C108.005 161.672 108.327 161.623 108.828 161.623H109.453V152.824H108.828C108.34 152.824 108.021 152.775 107.871 152.678C107.728 152.574 107.656 152.388 107.656 152.121C107.656 151.88 107.715 151.704 107.832 151.594C107.956 151.477 108.141 151.418 108.389 151.418H108.828H116.895C117.116 151.418 117.282 151.486 117.393 151.623C117.51 151.753 117.568 151.945 117.568 152.199V154.504C117.568 154.842 117.52 155.077 117.422 155.207C117.324 155.337 117.148 155.402 116.895 155.402C116.628 155.402 116.442 155.331 116.338 155.188C116.24 155.044 116.191 154.722 116.191 154.221V152.824H110.996V156.115H113.555V155.598C113.555 155.246 113.6 155.002 113.691 154.865C113.789 154.729 113.955 154.66 114.189 154.66C114.417 154.66 114.574 154.735 114.658 154.885C114.749 155.028 114.795 155.34 114.795 155.822V157.639C114.795 158.127 114.749 158.439 114.658 158.576C114.567 158.713 114.404 158.781 114.17 158.781C113.936 158.781 113.773 158.703 113.682 158.547C113.597 158.391 113.555 158.088 113.555 157.639V157.297H110.996V161.623H116.191V160.041C116.191 159.54 116.24 159.217 116.338 159.074C116.442 158.931 116.628 158.859 116.895 158.859C117.142 158.859 117.314 158.928 117.412 159.064C117.516 159.195 117.568 159.445 117.568 159.816V162.277C117.568 162.512 117.51 162.691 117.393 162.814C117.275 162.938 117.109 163 116.895 163H108.828ZM123.008 158H127.002L124.902 152.824L123.008 158ZM123.506 152.824H122.08C121.683 152.824 121.403 152.772 121.24 152.668C121.084 152.557 121.006 152.375 121.006 152.121C121.006 151.854 121.074 151.672 121.211 151.574C121.354 151.47 121.738 151.418 122.363 151.418H125.146C125.505 151.418 125.745 151.467 125.869 151.564C125.999 151.656 126.117 151.828 126.221 152.082L130.039 161.623H130.205C130.557 161.623 130.798 161.672 130.928 161.77C131.058 161.867 131.123 162.043 131.123 162.297C131.123 162.564 131.061 162.749 130.938 162.854C130.814 162.951 130.583 163 130.244 163H127.588C127.093 163 126.774 162.951 126.631 162.854C126.494 162.749 126.426 162.564 126.426 162.297C126.426 162.049 126.501 161.877 126.65 161.779C126.807 161.675 127.096 161.623 127.52 161.623H128.428L127.48 159.299H122.52L121.68 161.623H122.627C123.057 161.623 123.35 161.675 123.506 161.779C123.662 161.877 123.74 162.049 123.74 162.297C123.74 162.564 123.669 162.749 123.525 162.854C123.389 162.951 123.083 163 122.607 163H120.039C119.622 163 119.346 162.951 119.209 162.854C119.072 162.749 119.004 162.564 119.004 162.297C119.004 162.043 119.072 161.867 119.209 161.77C119.346 161.672 119.609 161.623 120 161.623H120.186L123.506 152.824ZM134.854 152.736V156.682H136.875C137.786 156.682 138.47 156.519 138.926 156.193C139.388 155.861 139.619 155.37 139.619 154.719C139.619 154.061 139.395 153.566 138.945 153.234C138.496 152.902 137.826 152.736 136.934 152.736H134.854ZM134.854 161.623H135.518C135.895 161.623 136.162 161.675 136.318 161.779C136.475 161.883 136.553 162.056 136.553 162.297C136.553 162.557 136.484 162.74 136.348 162.844C136.211 162.948 135.954 163 135.576 163H132.295C132.074 163 131.904 162.941 131.787 162.824C131.67 162.701 131.611 162.525 131.611 162.297C131.611 162.056 131.676 161.883 131.807 161.779C131.937 161.675 132.152 161.623 132.451 161.623H132.773H133.34V152.736H132.773C132.285 152.736 131.969 152.691 131.826 152.6C131.683 152.508 131.611 152.336 131.611 152.082C131.611 151.861 131.667 151.695 131.777 151.584C131.895 151.473 132.067 151.418 132.295 151.418H136.416C137.412 151.418 138.154 151.467 138.643 151.564C139.137 151.656 139.554 151.815 139.893 152.043C140.329 152.336 140.671 152.723 140.918 153.205C141.172 153.687 141.299 154.204 141.299 154.758C141.299 155.507 141.068 156.151 140.605 156.691C140.15 157.225 139.512 157.596 138.691 157.805C138.861 157.902 139.01 158.016 139.141 158.146C139.277 158.277 139.408 158.433 139.531 158.615L141.494 161.623H141.816C142.181 161.623 142.432 161.675 142.568 161.779C142.705 161.877 142.773 162.049 142.773 162.297C142.773 162.525 142.715 162.701 142.598 162.824C142.487 162.941 142.321 163 142.1 163H140.996C140.677 163 140.365 162.766 140.059 162.297C140.02 162.258 139.99 162.225 139.971 162.199L138.096 159.357C137.712 158.778 137.393 158.404 137.139 158.234C136.891 158.065 136.562 157.98 136.152 157.98H134.854V161.623ZM145.391 155.363C145.378 155.852 145.319 156.164 145.215 156.301C145.117 156.431 144.922 156.496 144.629 156.496C144.401 156.496 144.229 156.438 144.111 156.32C144.001 156.197 143.945 156.018 143.945 155.783C143.945 155.783 143.949 155.734 143.955 155.637C143.962 155.533 143.965 155.428 143.965 155.324L144.062 152.102C144.076 151.861 144.141 151.688 144.258 151.584C144.375 151.473 144.557 151.418 144.805 151.418H153.291C153.538 151.418 153.721 151.473 153.838 151.584C153.955 151.688 154.017 151.861 154.023 152.102L154.131 155.324C154.131 155.441 154.134 155.552 154.141 155.656C154.147 155.76 154.15 155.809 154.15 155.803C154.15 156.037 154.089 156.213 153.965 156.33C153.841 156.441 153.656 156.496 153.408 156.496C153.148 156.496 152.969 156.431 152.871 156.301C152.773 156.164 152.718 155.852 152.705 155.363L152.607 152.824H149.805V161.623H151.309H151.689C151.963 161.623 152.161 161.678 152.285 161.789C152.409 161.893 152.471 162.062 152.471 162.297C152.471 162.525 152.412 162.701 152.295 162.824C152.178 162.941 152.008 163 151.787 163H146.309C146.087 163 145.918 162.941 145.801 162.824C145.684 162.701 145.625 162.525 145.625 162.297C145.625 162.056 145.687 161.883 145.811 161.779C145.941 161.675 146.159 161.623 146.465 161.623H146.787H148.291V152.824H145.488L145.391 155.363ZM170.889 152.736V156.682H172.91C173.822 156.682 174.505 156.519 174.961 156.193C175.423 155.861 175.654 155.37 175.654 154.719C175.654 154.061 175.43 153.566 174.98 153.234C174.531 152.902 173.861 152.736 172.969 152.736H170.889ZM170.889 161.623H171.553C171.93 161.623 172.197 161.675 172.354 161.779C172.51 161.883 172.588 162.056 172.588 162.297C172.588 162.557 172.52 162.74 172.383 162.844C172.246 162.948 171.989 163 171.611 163H168.33C168.109 163 167.939 162.941 167.822 162.824C167.705 162.701 167.646 162.525 167.646 162.297C167.646 162.056 167.712 161.883 167.842 161.779C167.972 161.675 168.187 161.623 168.486 161.623H168.809H169.375V152.736H168.809C168.32 152.736 168.005 152.691 167.861 152.6C167.718 152.508 167.646 152.336 167.646 152.082C167.646 151.861 167.702 151.695 167.812 151.584C167.93 151.473 168.102 151.418 168.33 151.418H172.451C173.447 151.418 174.189 151.467 174.678 151.564C175.173 151.656 175.589 151.815 175.928 152.043C176.364 152.336 176.706 152.723 176.953 153.205C177.207 153.687 177.334 154.204 177.334 154.758C177.334 155.507 177.103 156.151 176.641 156.691C176.185 157.225 175.547 157.596 174.727 157.805C174.896 157.902 175.046 158.016 175.176 158.146C175.312 158.277 175.443 158.433 175.566 158.615L177.529 161.623H177.852C178.216 161.623 178.467 161.675 178.604 161.779C178.74 161.877 178.809 162.049 178.809 162.297C178.809 162.525 178.75 162.701 178.633 162.824C178.522 162.941 178.356 163 178.135 163H177.031C176.712 163 176.4 162.766 176.094 162.297C176.055 162.258 176.025 162.225 176.006 162.199L174.131 159.357C173.747 158.778 173.428 158.404 173.174 158.234C172.926 158.065 172.598 157.98 172.188 157.98H170.889V161.623ZM183.066 158H187.061L184.961 152.824L183.066 158ZM183.564 152.824H182.139C181.742 152.824 181.462 152.772 181.299 152.668C181.143 152.557 181.064 152.375 181.064 152.121C181.064 151.854 181.133 151.672 181.27 151.574C181.413 151.47 181.797 151.418 182.422 151.418H185.205C185.563 151.418 185.804 151.467 185.928 151.564C186.058 151.656 186.175 151.828 186.279 152.082L190.098 161.623H190.264C190.615 161.623 190.856 161.672 190.986 161.77C191.117 161.867 191.182 162.043 191.182 162.297C191.182 162.564 191.12 162.749 190.996 162.854C190.872 162.951 190.641 163 190.303 163H187.646C187.152 163 186.833 162.951 186.689 162.854C186.553 162.749 186.484 162.564 186.484 162.297C186.484 162.049 186.559 161.877 186.709 161.779C186.865 161.675 187.155 161.623 187.578 161.623H188.486L187.539 159.299H182.578L181.738 161.623H182.686C183.115 161.623 183.408 161.675 183.564 161.779C183.721 161.877 183.799 162.049 183.799 162.297C183.799 162.564 183.727 162.749 183.584 162.854C183.447 162.951 183.141 163 182.666 163H180.098C179.681 163 179.404 162.951 179.268 162.854C179.131 162.749 179.062 162.564 179.062 162.297C179.062 162.043 179.131 161.867 179.268 161.77C179.404 161.672 179.668 161.623 180.059 161.623H180.244L183.564 152.824ZM193.438 155.363C193.424 155.852 193.366 156.164 193.262 156.301C193.164 156.431 192.969 156.496 192.676 156.496C192.448 156.496 192.275 156.438 192.158 156.32C192.048 156.197 191.992 156.018 191.992 155.783C191.992 155.783 191.995 155.734 192.002 155.637C192.008 155.533 192.012 155.428 192.012 155.324L192.109 152.102C192.122 151.861 192.188 151.688 192.305 151.584C192.422 151.473 192.604 151.418 192.852 151.418H201.338C201.585 151.418 201.768 151.473 201.885 151.584C202.002 151.688 202.064 151.861 202.07 152.102L202.178 155.324C202.178 155.441 202.181 155.552 202.188 155.656C202.194 155.76 202.197 155.809 202.197 155.803C202.197 156.037 202.135 156.213 202.012 156.33C201.888 156.441 201.702 156.496 201.455 156.496C201.195 156.496 201.016 156.431 200.918 156.301C200.82 156.164 200.765 155.852 200.752 155.363L200.654 152.824H197.852V161.623H199.355H199.736C200.01 161.623 200.208 161.678 200.332 161.789C200.456 161.893 200.518 162.062 200.518 162.297C200.518 162.525 200.459 162.701 200.342 162.824C200.225 162.941 200.055 163 199.834 163H194.355C194.134 163 193.965 162.941 193.848 162.824C193.73 162.701 193.672 162.525 193.672 162.297C193.672 162.056 193.734 161.883 193.857 161.779C193.988 161.675 194.206 161.623 194.512 161.623H194.834H196.338V152.824H193.535L193.438 155.363ZM204.922 163H204.463C204.229 163 204.049 162.941 203.926 162.824C203.809 162.707 203.75 162.531 203.75 162.297C203.75 162.036 203.818 161.861 203.955 161.77C204.098 161.672 204.421 161.623 204.922 161.623H205.547V152.824H204.922C204.434 152.824 204.115 152.775 203.965 152.678C203.822 152.574 203.75 152.388 203.75 152.121C203.75 151.88 203.809 151.704 203.926 151.594C204.049 151.477 204.235 151.418 204.482 151.418H204.922H212.988C213.21 151.418 213.376 151.486 213.486 151.623C213.604 151.753 213.662 151.945 213.662 152.199V154.504C213.662 154.842 213.613 155.077 213.516 155.207C213.418 155.337 213.242 155.402 212.988 155.402C212.721 155.402 212.536 155.331 212.432 155.188C212.334 155.044 212.285 154.722 212.285 154.221V152.824H207.09V156.115H209.648V155.598C209.648 155.246 209.694 155.002 209.785 154.865C209.883 154.729 210.049 154.66 210.283 154.66C210.511 154.66 210.667 154.735 210.752 154.885C210.843 155.028 210.889 155.34 210.889 155.822V157.639C210.889 158.127 210.843 158.439 210.752 158.576C210.661 158.713 210.498 158.781 210.264 158.781C210.029 158.781 209.867 158.703 209.775 158.547C209.691 158.391 209.648 158.088 209.648 157.639V157.297H207.09V161.623H212.285V160.041C212.285 159.54 212.334 159.217 212.432 159.074C212.536 158.931 212.721 158.859 212.988 158.859C213.236 158.859 213.408 158.928 213.506 159.064C213.61 159.195 213.662 159.445 213.662 159.816V162.277C213.662 162.512 213.604 162.691 213.486 162.814C213.369 162.938 213.203 163 212.988 163H204.922Z" fill="black"/>
<path d="M240.896 159.201C240.896 160.002 241.108 160.656 241.531 161.164C241.954 161.665 242.498 161.916 243.162 161.916C243.787 161.916 244.298 161.678 244.695 161.203C245.099 160.728 245.301 160.106 245.301 159.338C245.301 158.544 245.092 157.899 244.676 157.404C244.266 156.91 243.735 156.662 243.084 156.662C242.452 156.662 241.928 156.9 241.512 157.375C241.102 157.85 240.896 158.459 240.896 159.201ZM240.682 156.604C241.033 156.148 241.424 155.806 241.854 155.578C242.283 155.35 242.752 155.236 243.26 155.236C244.288 155.236 245.161 155.624 245.877 156.398C246.6 157.173 246.961 158.127 246.961 159.26C246.961 160.445 246.613 161.418 245.916 162.18C245.219 162.941 244.327 163.322 243.24 163.322C241.958 163.322 240.929 162.814 240.154 161.799C239.386 160.777 239.002 159.416 239.002 157.717C239.002 155.503 239.572 153.726 240.711 152.385C241.85 151.037 243.354 150.363 245.223 150.363C245.854 150.363 246.271 150.409 246.473 150.5C246.674 150.591 246.775 150.764 246.775 151.018C246.775 151.434 246.391 151.649 245.623 151.662C245.115 151.669 244.708 151.701 244.402 151.76C243.374 151.955 242.537 152.473 241.893 153.312C241.255 154.146 240.851 155.243 240.682 156.604ZM257.234 157.102C256.883 157.551 256.495 157.886 256.072 158.107C255.649 158.329 255.184 158.439 254.676 158.439C253.647 158.439 252.771 158.055 252.049 157.287C251.333 156.512 250.975 155.562 250.975 154.436C250.975 153.251 251.32 152.277 252.01 151.516C252.706 150.747 253.595 150.363 254.676 150.363C255.952 150.363 256.98 150.878 257.762 151.906C258.543 152.928 258.934 154.286 258.934 155.979C258.934 158.212 258.361 159.995 257.215 161.33C256.076 162.658 254.549 163.322 252.635 163.322C252.029 163.322 251.626 163.277 251.424 163.186C251.229 163.094 251.131 162.925 251.131 162.678C251.131 162.261 251.518 162.043 252.293 162.023C252.807 162.01 253.214 161.975 253.514 161.916C254.542 161.727 255.376 161.216 256.014 160.383C256.658 159.549 257.065 158.456 257.234 157.102ZM257.029 154.484C257.029 153.677 256.814 153.023 256.385 152.521C255.962 152.014 255.418 151.76 254.754 151.76C254.122 151.76 253.611 151.997 253.221 152.473C252.83 152.948 252.635 153.57 252.635 154.338C252.635 155.132 252.84 155.78 253.25 156.281C253.66 156.776 254.188 157.023 254.832 157.023C255.464 157.023 255.988 156.786 256.404 156.311C256.821 155.829 257.029 155.22 257.029 154.484ZM264.939 161.623H267.107C268.331 161.623 269.194 161.47 269.695 161.164C270.197 160.852 270.447 160.337 270.447 159.621C270.447 158.898 270.206 158.384 269.725 158.078C269.249 157.772 268.41 157.619 267.205 157.619H264.939V161.623ZM264.939 156.418H266.98C267.905 156.418 268.589 156.271 269.031 155.979C269.48 155.686 269.705 155.233 269.705 154.621C269.705 154.042 269.503 153.599 269.1 153.293C268.696 152.98 268.117 152.824 267.361 152.824H264.939V156.418ZM266.902 163H262.527C262.299 163 262.127 162.941 262.01 162.824C261.899 162.707 261.844 162.531 261.844 162.297C261.844 162.036 261.915 161.861 262.059 161.77C262.202 161.672 262.544 161.623 263.084 161.623H263.406V152.824H263.084C262.583 152.824 262.26 152.775 262.117 152.678C261.974 152.574 261.902 152.388 261.902 152.121C261.902 151.893 261.961 151.721 262.078 151.604C262.195 151.48 262.365 151.418 262.586 151.418H267.146C268.527 151.418 269.578 151.688 270.301 152.229C271.023 152.762 271.385 153.54 271.385 154.562C271.385 155.077 271.274 155.526 271.053 155.91C270.831 156.294 270.503 156.61 270.066 156.857C270.77 157.111 271.29 157.466 271.629 157.922C271.974 158.378 272.146 158.957 272.146 159.66C272.146 160.253 272 160.793 271.707 161.281C271.414 161.77 271.001 162.17 270.467 162.482C270.148 162.665 269.793 162.798 269.402 162.883C269.012 162.961 268.458 163 267.742 163H266.902ZM277.391 152.824V157.355H279.217C280.239 157.355 281.004 157.167 281.512 156.789C282.02 156.411 282.273 155.842 282.273 155.08C282.273 154.331 282.016 153.768 281.502 153.391C280.994 153.013 280.232 152.824 279.217 152.824H277.391ZM279.432 161.623C279.751 161.623 279.982 161.678 280.125 161.789C280.268 161.893 280.34 162.062 280.34 162.297C280.34 162.557 280.271 162.74 280.135 162.844C279.998 162.948 279.738 163 279.354 163H274.578C274.357 163 274.188 162.941 274.07 162.824C273.953 162.701 273.895 162.525 273.895 162.297C273.895 162.069 273.95 161.9 274.061 161.789C274.178 161.678 274.357 161.623 274.598 161.623H275.857V152.824H275.174C274.601 152.824 274.243 152.775 274.1 152.678C273.963 152.574 273.895 152.388 273.895 152.121C273.895 151.893 273.953 151.721 274.07 151.604C274.188 151.48 274.357 151.418 274.578 151.418H279.1C280.682 151.418 281.883 151.724 282.703 152.336C283.523 152.948 283.934 153.85 283.934 155.041C283.934 156.232 283.527 157.131 282.713 157.736C281.899 158.342 280.695 158.645 279.1 158.645H277.391V161.623H279.432ZM291.062 158.195L293.162 152.082C293.253 151.848 293.377 151.678 293.533 151.574C293.696 151.47 293.927 151.418 294.227 151.418H295.828C296.036 151.418 296.193 151.477 296.297 151.594C296.408 151.704 296.463 151.867 296.463 152.082C296.463 152.329 296.395 152.502 296.258 152.6C296.128 152.691 295.883 152.736 295.525 152.736H295.369L295.643 161.623H295.867C296.29 161.623 296.574 161.672 296.717 161.77C296.86 161.861 296.932 162.036 296.932 162.297C296.932 162.525 296.873 162.701 296.756 162.824C296.639 162.941 296.469 163 296.248 163H293.504C293.126 163 292.869 162.948 292.732 162.844C292.596 162.74 292.527 162.557 292.527 162.297C292.527 162.043 292.609 161.867 292.771 161.77C292.934 161.672 293.247 161.623 293.709 161.623H294.129L293.924 153.225L291.99 158.84C291.893 159.113 291.772 159.302 291.629 159.406C291.486 159.51 291.271 159.562 290.984 159.562C290.711 159.562 290.503 159.51 290.359 159.406C290.216 159.296 290.099 159.107 290.008 158.84L288.045 153.225L287.869 161.623H288.523C288.908 161.623 289.178 161.675 289.334 161.779C289.49 161.883 289.568 162.056 289.568 162.297C289.568 162.557 289.5 162.74 289.363 162.844C289.227 162.948 288.966 163 288.582 163H285.848C285.62 163 285.447 162.941 285.33 162.824C285.219 162.707 285.164 162.531 285.164 162.297C285.164 162.036 285.236 161.861 285.379 161.77C285.522 161.672 285.805 161.623 286.229 161.623H286.443L286.727 152.736H286.57C286.212 152.736 285.965 152.691 285.828 152.6C285.691 152.502 285.623 152.329 285.623 152.082C285.623 151.867 285.678 151.704 285.789 151.594C285.9 151.477 286.059 151.418 286.268 151.418H287.869C288.169 151.418 288.396 151.47 288.553 151.574C288.715 151.678 288.839 151.848 288.924 152.082L291.062 158.195Z" fill="black"/>
<path d="M98.8184 173.736V177.682H100.84C101.751 177.682 102.435 177.519 102.891 177.193C103.353 176.861 103.584 176.37 103.584 175.719C103.584 175.061 103.359 174.566 102.91 174.234C102.461 173.902 101.79 173.736 100.898 173.736H98.8184ZM98.8184 182.623H99.4824C99.86 182.623 100.127 182.675 100.283 182.779C100.439 182.883 100.518 183.056 100.518 183.297C100.518 183.557 100.449 183.74 100.312 183.844C100.176 183.948 99.9186 184 99.541 184H96.2598C96.0384 184 95.8691 183.941 95.752 183.824C95.6348 183.701 95.5762 183.525 95.5762 183.297C95.5762 183.056 95.6413 182.883 95.7715 182.779C95.9017 182.675 96.1165 182.623 96.416 182.623H96.7383H97.3047V173.736H96.7383C96.25 173.736 95.9342 173.691 95.791 173.6C95.6478 173.508 95.5762 173.336 95.5762 173.082C95.5762 172.861 95.6315 172.695 95.7422 172.584C95.8594 172.473 96.0319 172.418 96.2598 172.418H100.381C101.377 172.418 102.119 172.467 102.607 172.564C103.102 172.656 103.519 172.815 103.857 173.043C104.294 173.336 104.635 173.723 104.883 174.205C105.137 174.687 105.264 175.204 105.264 175.758C105.264 176.507 105.033 177.151 104.57 177.691C104.115 178.225 103.477 178.596 102.656 178.805C102.826 178.902 102.975 179.016 103.105 179.146C103.242 179.277 103.372 179.433 103.496 179.615L105.459 182.623H105.781C106.146 182.623 106.396 182.675 106.533 182.779C106.67 182.877 106.738 183.049 106.738 183.297C106.738 183.525 106.68 183.701 106.562 183.824C106.452 183.941 106.286 184 106.064 184H104.961C104.642 184 104.329 183.766 104.023 183.297C103.984 183.258 103.955 183.225 103.936 183.199L102.061 180.357C101.676 179.778 101.357 179.404 101.104 179.234C100.856 179.065 100.527 178.98 100.117 178.98H98.8184V182.623ZM108.828 184H108.369C108.135 184 107.956 183.941 107.832 183.824C107.715 183.707 107.656 183.531 107.656 183.297C107.656 183.036 107.725 182.861 107.861 182.77C108.005 182.672 108.327 182.623 108.828 182.623H109.453V173.824H108.828C108.34 173.824 108.021 173.775 107.871 173.678C107.728 173.574 107.656 173.388 107.656 173.121C107.656 172.88 107.715 172.704 107.832 172.594C107.956 172.477 108.141 172.418 108.389 172.418H108.828H116.895C117.116 172.418 117.282 172.486 117.393 172.623C117.51 172.753 117.568 172.945 117.568 173.199V175.504C117.568 175.842 117.52 176.077 117.422 176.207C117.324 176.337 117.148 176.402 116.895 176.402C116.628 176.402 116.442 176.331 116.338 176.188C116.24 176.044 116.191 175.722 116.191 175.221V173.824H110.996V177.115H113.555V176.598C113.555 176.246 113.6 176.002 113.691 175.865C113.789 175.729 113.955 175.66 114.189 175.66C114.417 175.66 114.574 175.735 114.658 175.885C114.749 176.028 114.795 176.34 114.795 176.822V178.639C114.795 179.127 114.749 179.439 114.658 179.576C114.567 179.713 114.404 179.781 114.17 179.781C113.936 179.781 113.773 179.703 113.682 179.547C113.597 179.391 113.555 179.088 113.555 178.639V178.297H110.996V182.623H116.191V181.041C116.191 180.54 116.24 180.217 116.338 180.074C116.442 179.931 116.628 179.859 116.895 179.859C117.142 179.859 117.314 179.928 117.412 180.064C117.516 180.195 117.568 180.445 117.568 180.816V183.277C117.568 183.512 117.51 183.691 117.393 183.814C117.275 183.938 117.109 184 116.895 184H108.828ZM128.105 172.74C128.171 172.564 128.262 172.441 128.379 172.369C128.496 172.298 128.665 172.262 128.887 172.262C129.128 172.262 129.297 172.32 129.395 172.438C129.492 172.555 129.541 172.796 129.541 173.16C129.541 173.798 129.548 174.394 129.561 174.947C129.574 175.494 129.58 175.732 129.58 175.66C129.58 175.966 129.528 176.174 129.424 176.285C129.32 176.389 129.134 176.441 128.867 176.441C128.438 176.441 128.158 176.135 128.027 175.523C127.982 175.341 127.946 175.201 127.92 175.104C127.796 174.615 127.5 174.218 127.031 173.912C126.562 173.6 126.012 173.443 125.381 173.443C124.229 173.443 123.304 173.867 122.607 174.713C121.911 175.553 121.562 176.682 121.562 178.102C121.562 179.521 121.914 180.654 122.617 181.5C123.327 182.34 124.261 182.76 125.42 182.76C125.798 182.76 126.182 182.708 126.572 182.604C126.963 182.493 127.347 182.33 127.725 182.115C127.9 182.024 128.141 181.871 128.447 181.656C128.753 181.435 128.971 181.324 129.102 181.324C129.303 181.324 129.473 181.393 129.609 181.529C129.753 181.66 129.824 181.822 129.824 182.018C129.824 182.213 129.746 182.402 129.59 182.584C129.44 182.76 129.157 182.978 128.74 183.238C128.193 183.596 127.643 183.86 127.09 184.029C126.536 184.199 125.954 184.283 125.342 184.283C123.734 184.283 122.406 183.717 121.357 182.584C120.309 181.445 119.785 179.99 119.785 178.219C119.785 176.467 120.316 175.012 121.377 173.854C122.438 172.695 123.773 172.115 125.381 172.115C125.811 172.115 126.247 172.167 126.689 172.271C127.139 172.376 127.611 172.532 128.105 172.74ZM142.314 178.199C142.314 179.983 141.82 181.448 140.83 182.594C139.84 183.733 138.574 184.303 137.031 184.303C135.501 184.303 134.238 183.73 133.242 182.584C132.253 181.438 131.758 179.977 131.758 178.199C131.758 176.402 132.249 174.938 133.232 173.805C134.215 172.665 135.482 172.096 137.031 172.096C138.574 172.096 139.84 172.669 140.83 173.814C141.82 174.96 142.314 176.422 142.314 178.199ZM137.031 182.916C138.125 182.916 138.984 182.499 139.609 181.666C140.241 180.826 140.557 179.671 140.557 178.199C140.557 176.728 140.241 175.576 139.609 174.742C138.984 173.902 138.125 173.482 137.031 173.482C135.931 173.482 135.068 173.899 134.443 174.732C133.825 175.559 133.516 176.715 133.516 178.199C133.516 179.671 133.828 180.826 134.453 181.666C135.085 182.499 135.944 182.916 137.031 182.916ZM144.209 173.824H144.082C143.757 173.824 143.525 173.772 143.389 173.668C143.252 173.557 143.184 173.375 143.184 173.121C143.184 172.893 143.242 172.721 143.359 172.604C143.477 172.48 143.646 172.418 143.867 172.418H146.826C147.21 172.418 147.467 172.47 147.598 172.574C147.734 172.678 147.803 172.861 147.803 173.121C147.803 173.362 147.731 173.541 147.588 173.658C147.445 173.769 147.217 173.824 146.904 173.824H145.83L149.15 182.34L152.383 173.824H151.084C150.778 173.824 150.55 173.769 150.4 173.658C150.257 173.541 150.186 173.362 150.186 173.121C150.186 172.861 150.254 172.678 150.391 172.574C150.527 172.47 150.785 172.418 151.162 172.418H154.229C154.45 172.418 154.616 172.48 154.727 172.604C154.844 172.721 154.902 172.893 154.902 173.121C154.902 173.375 154.834 173.557 154.697 173.668C154.561 173.772 154.323 173.824 153.984 173.824H153.867L150.352 183.023C150.15 183.512 149.99 183.818 149.873 183.941C149.756 184.059 149.606 184.117 149.424 184.117H148.867C148.438 184.117 148.089 183.772 147.822 183.082L147.803 183.023L144.209 173.824ZM156.875 184H156.416C156.182 184 156.003 183.941 155.879 183.824C155.762 183.707 155.703 183.531 155.703 183.297C155.703 183.036 155.771 182.861 155.908 182.77C156.051 182.672 156.374 182.623 156.875 182.623H157.5V173.824H156.875C156.387 173.824 156.068 173.775 155.918 173.678C155.775 173.574 155.703 173.388 155.703 173.121C155.703 172.88 155.762 172.704 155.879 172.594C156.003 172.477 156.188 172.418 156.436 172.418H156.875H164.941C165.163 172.418 165.329 172.486 165.439 172.623C165.557 172.753 165.615 172.945 165.615 173.199V175.504C165.615 175.842 165.566 176.077 165.469 176.207C165.371 176.337 165.195 176.402 164.941 176.402C164.674 176.402 164.489 176.331 164.385 176.188C164.287 176.044 164.238 175.722 164.238 175.221V173.824H159.043V177.115H161.602V176.598C161.602 176.246 161.647 176.002 161.738 175.865C161.836 175.729 162.002 175.66 162.236 175.66C162.464 175.66 162.62 175.735 162.705 175.885C162.796 176.028 162.842 176.34 162.842 176.822V178.639C162.842 179.127 162.796 179.439 162.705 179.576C162.614 179.713 162.451 179.781 162.217 179.781C161.982 179.781 161.82 179.703 161.729 179.547C161.644 179.391 161.602 179.088 161.602 178.639V178.297H159.043V182.623H164.238V181.041C164.238 180.54 164.287 180.217 164.385 180.074C164.489 179.931 164.674 179.859 164.941 179.859C165.189 179.859 165.361 179.928 165.459 180.064C165.563 180.195 165.615 180.445 165.615 180.816V183.277C165.615 183.512 165.557 183.691 165.439 183.814C165.322 183.938 165.156 184 164.941 184H156.875ZM170.889 173.736V177.682H172.91C173.822 177.682 174.505 177.519 174.961 177.193C175.423 176.861 175.654 176.37 175.654 175.719C175.654 175.061 175.43 174.566 174.98 174.234C174.531 173.902 173.861 173.736 172.969 173.736H170.889ZM170.889 182.623H171.553C171.93 182.623 172.197 182.675 172.354 182.779C172.51 182.883 172.588 183.056 172.588 183.297C172.588 183.557 172.52 183.74 172.383 183.844C172.246 183.948 171.989 184 171.611 184H168.33C168.109 184 167.939 183.941 167.822 183.824C167.705 183.701 167.646 183.525 167.646 183.297C167.646 183.056 167.712 182.883 167.842 182.779C167.972 182.675 168.187 182.623 168.486 182.623H168.809H169.375V173.736H168.809C168.32 173.736 168.005 173.691 167.861 173.6C167.718 173.508 167.646 173.336 167.646 173.082C167.646 172.861 167.702 172.695 167.812 172.584C167.93 172.473 168.102 172.418 168.33 172.418H172.451C173.447 172.418 174.189 172.467 174.678 172.564C175.173 172.656 175.589 172.815 175.928 173.043C176.364 173.336 176.706 173.723 176.953 174.205C177.207 174.687 177.334 175.204 177.334 175.758C177.334 176.507 177.103 177.151 176.641 177.691C176.185 178.225 175.547 178.596 174.727 178.805C174.896 178.902 175.046 179.016 175.176 179.146C175.312 179.277 175.443 179.433 175.566 179.615L177.529 182.623H177.852C178.216 182.623 178.467 182.675 178.604 182.779C178.74 182.877 178.809 183.049 178.809 183.297C178.809 183.525 178.75 183.701 178.633 183.824C178.522 183.941 178.356 184 178.135 184H177.031C176.712 184 176.4 183.766 176.094 183.297C176.055 183.258 176.025 183.225 176.006 183.199L174.131 180.357C173.747 179.778 173.428 179.404 173.174 179.234C172.926 179.065 172.598 178.98 172.188 178.98H170.889V182.623ZM187.227 182.623C187.728 182.623 188.047 182.672 188.184 182.77C188.327 182.861 188.398 183.036 188.398 183.297C188.398 183.564 188.327 183.749 188.184 183.854C188.047 183.951 187.767 184 187.344 184H182.705C182.282 184 182.002 183.951 181.865 183.854C181.729 183.749 181.66 183.564 181.66 183.297C181.66 183.036 181.735 182.861 181.885 182.77C182.041 182.672 182.36 182.623 182.842 182.623H184.258V179.381L181.006 173.824H180.84C180.449 173.824 180.182 173.772 180.039 173.668C179.896 173.564 179.824 173.382 179.824 173.121C179.824 172.88 179.883 172.704 180 172.594C180.124 172.477 180.312 172.418 180.566 172.418H181.006H183.242C183.626 172.418 183.883 172.47 184.014 172.574C184.15 172.678 184.219 172.861 184.219 173.121C184.219 173.382 184.137 173.564 183.975 173.668C183.818 173.772 183.529 173.824 183.105 173.824H182.783L185.146 178.062L187.598 173.824H187.197C186.846 173.824 186.602 173.772 186.465 173.668C186.328 173.564 186.26 173.382 186.26 173.121C186.26 172.848 186.318 172.662 186.436 172.564C186.553 172.467 186.849 172.418 187.324 172.418H187.578H189.121C189.616 172.418 189.932 172.47 190.068 172.574C190.212 172.672 190.283 172.854 190.283 173.121C190.283 173.382 190.212 173.564 190.068 173.668C189.932 173.772 189.668 173.824 189.277 173.824H189.121L185.801 179.518V182.623H187.227Z" fill="black"/>
<path d="M243.143 183.805C243.09 183.961 243.042 184.062 242.996 184.107C242.951 184.153 242.866 184.176 242.742 184.176H242.576H241.883C241.753 184.176 241.648 184.15 241.57 184.098C241.499 184.046 241.463 183.974 241.463 183.883C241.463 183.831 241.466 183.782 241.473 183.736C241.486 183.684 241.502 183.626 241.521 183.561L245.359 173.141H240.398C240.379 173.447 240.311 173.674 240.193 173.824C240.076 173.967 239.904 174.039 239.676 174.039C239.454 174.039 239.288 173.984 239.178 173.873C239.074 173.762 239.021 173.59 239.021 173.355C239.021 173.29 239.021 173.242 239.021 173.209C239.028 173.176 239.035 173.147 239.041 173.121L239.139 172.242C239.158 172.06 239.223 171.92 239.334 171.822C239.451 171.725 239.607 171.676 239.803 171.676H246.258C246.447 171.676 246.583 171.718 246.668 171.803C246.759 171.881 246.805 172.008 246.805 172.184V172.516C246.805 172.594 246.788 172.698 246.756 172.828C246.723 172.952 246.671 173.121 246.6 173.336L243.143 183.805ZM257.234 178.102C256.883 178.551 256.495 178.886 256.072 179.107C255.649 179.329 255.184 179.439 254.676 179.439C253.647 179.439 252.771 179.055 252.049 178.287C251.333 177.512 250.975 176.562 250.975 175.436C250.975 174.251 251.32 173.277 252.01 172.516C252.706 171.747 253.595 171.363 254.676 171.363C255.952 171.363 256.98 171.878 257.762 172.906C258.543 173.928 258.934 175.286 258.934 176.979C258.934 179.212 258.361 180.995 257.215 182.33C256.076 183.658 254.549 184.322 252.635 184.322C252.029 184.322 251.626 184.277 251.424 184.186C251.229 184.094 251.131 183.925 251.131 183.678C251.131 183.261 251.518 183.043 252.293 183.023C252.807 183.01 253.214 182.975 253.514 182.916C254.542 182.727 255.376 182.216 256.014 181.383C256.658 180.549 257.065 179.456 257.234 178.102ZM257.029 175.484C257.029 174.677 256.814 174.023 256.385 173.521C255.962 173.014 255.418 172.76 254.754 172.76C254.122 172.76 253.611 172.997 253.221 173.473C252.83 173.948 252.635 174.57 252.635 175.338C252.635 176.132 252.84 176.78 253.25 177.281C253.66 177.776 254.188 178.023 254.832 178.023C255.464 178.023 255.988 177.786 256.404 177.311C256.821 176.829 257.029 176.22 257.029 175.484ZM266.521 181.383C266.521 181.826 266.671 182.187 266.971 182.467C267.277 182.74 267.674 182.877 268.162 182.877C268.657 182.877 269.054 182.74 269.354 182.467C269.653 182.187 269.803 181.826 269.803 181.383C269.803 180.934 269.653 180.576 269.354 180.309C269.054 180.035 268.657 179.898 268.162 179.898C267.674 179.898 267.277 180.035 266.971 180.309C266.671 180.582 266.521 180.94 266.521 181.383ZM264.246 174.303C264.246 174.739 264.396 175.094 264.695 175.367C264.995 175.641 265.392 175.777 265.887 175.777C266.382 175.777 266.779 175.644 267.078 175.377C267.378 175.104 267.527 174.745 267.527 174.303C267.527 173.854 267.378 173.495 267.078 173.229C266.779 172.955 266.382 172.818 265.887 172.818C265.392 172.818 264.995 172.955 264.695 173.229C264.396 173.502 264.246 173.86 264.246 174.303ZM270.086 176.021C270.132 176.002 270.177 175.989 270.223 175.982C270.275 175.969 270.32 175.963 270.359 175.963C270.522 175.963 270.652 176.012 270.75 176.109C270.854 176.207 270.906 176.337 270.906 176.5C270.906 176.611 270.867 176.718 270.789 176.822C270.717 176.92 270.623 176.992 270.506 177.037L263.943 179.645C263.891 179.664 263.842 179.68 263.797 179.693C263.758 179.7 263.719 179.703 263.68 179.703C263.523 179.703 263.393 179.651 263.289 179.547C263.191 179.443 263.143 179.312 263.143 179.156C263.143 179.046 263.178 178.941 263.25 178.844C263.328 178.746 263.426 178.671 263.543 178.619L270.086 176.021ZM265.301 181.383C265.301 180.621 265.568 179.993 266.102 179.498C266.642 179.003 267.329 178.756 268.162 178.756C268.982 178.756 269.66 179.003 270.193 179.498C270.734 179.993 271.004 180.621 271.004 181.383C271.004 182.145 270.737 182.776 270.203 183.277C269.669 183.772 268.989 184.02 268.162 184.02C267.335 184.02 266.652 183.772 266.111 183.277C265.571 182.776 265.301 182.145 265.301 181.383ZM263.025 174.303C263.025 173.541 263.292 172.91 263.826 172.408C264.367 171.907 265.053 171.656 265.887 171.656C266.707 171.656 267.384 171.907 267.918 172.408C268.452 172.91 268.719 173.541 268.719 174.303C268.719 175.064 268.452 175.696 267.918 176.197C267.384 176.692 266.707 176.939 265.887 176.939C265.053 176.939 264.367 176.692 263.826 176.197C263.292 175.696 263.025 175.064 263.025 174.303Z" fill="black"/>
<path d="M99.0039 203.623H99.6582C100.042 203.623 100.312 203.675 100.469 203.779C100.625 203.883 100.703 204.056 100.703 204.297C100.703 204.557 100.635 204.74 100.498 204.844C100.361 204.948 100.101 205 99.7168 205H96.377C96.1556 205 95.9863 204.941 95.8691 204.824C95.7585 204.701 95.7031 204.525 95.7031 204.297C95.7031 204.056 95.765 203.883 95.8887 203.779C96.0189 203.675 96.237 203.623 96.543 203.623H96.8555H97.4805V194.824H96.8555C96.3607 194.824 96.0449 194.775 95.9082 194.678C95.7715 194.574 95.7031 194.388 95.7031 194.121C95.7031 193.893 95.7585 193.721 95.8691 193.604C95.9863 193.48 96.1556 193.418 96.377 193.418H99.7168C100.101 193.418 100.361 193.47 100.498 193.574C100.635 193.678 100.703 193.861 100.703 194.121C100.703 194.382 100.615 194.564 100.439 194.668C100.264 194.772 99.9316 194.824 99.4434 194.824H99.0039V198.799L103.076 194.824H102.959H102.744C102.425 194.824 102.194 194.769 102.051 194.658C101.908 194.548 101.836 194.368 101.836 194.121C101.836 193.867 101.891 193.688 102.002 193.584C102.113 193.473 102.292 193.418 102.539 193.418H105.42C105.641 193.418 105.811 193.48 105.928 193.604C106.045 193.721 106.104 193.893 106.104 194.121C106.104 194.375 106.025 194.557 105.869 194.668C105.719 194.772 105.449 194.824 105.059 194.824H104.922L101.143 198.477C101.709 198.594 102.256 198.958 102.783 199.57C103.311 200.182 104.131 201.533 105.244 203.623H105.42C105.824 203.623 106.094 203.672 106.23 203.77C106.367 203.867 106.436 204.043 106.436 204.297C106.436 204.525 106.377 204.701 106.26 204.824C106.149 204.941 105.983 205 105.762 205H104.824C104.616 205 104.463 204.977 104.365 204.932C104.274 204.886 104.18 204.782 104.082 204.619C104.023 204.528 103.662 203.867 102.998 202.637L102.617 201.924C102.207 201.162 101.797 200.592 101.387 200.215C100.977 199.831 100.54 199.606 100.078 199.541L99.0039 200.557V203.623ZM116.094 193.74C116.159 193.564 116.25 193.441 116.367 193.369C116.484 193.298 116.654 193.262 116.875 193.262C117.116 193.262 117.285 193.32 117.383 193.438C117.48 193.555 117.529 193.796 117.529 194.16C117.529 194.798 117.536 195.394 117.549 195.947C117.562 196.494 117.568 196.732 117.568 196.66C117.568 196.966 117.516 197.174 117.412 197.285C117.308 197.389 117.122 197.441 116.855 197.441C116.426 197.441 116.146 197.135 116.016 196.523C115.97 196.341 115.934 196.201 115.908 196.104C115.785 195.615 115.488 195.218 115.02 194.912C114.551 194.6 114.001 194.443 113.369 194.443C112.217 194.443 111.292 194.867 110.596 195.713C109.899 196.553 109.551 197.682 109.551 199.102C109.551 200.521 109.902 201.654 110.605 202.5C111.315 203.34 112.249 203.76 113.408 203.76C113.786 203.76 114.17 203.708 114.561 203.604C114.951 203.493 115.335 203.33 115.713 203.115C115.889 203.024 116.13 202.871 116.436 202.656C116.742 202.435 116.96 202.324 117.09 202.324C117.292 202.324 117.461 202.393 117.598 202.529C117.741 202.66 117.812 202.822 117.812 203.018C117.812 203.213 117.734 203.402 117.578 203.584C117.428 203.76 117.145 203.978 116.729 204.238C116.182 204.596 115.632 204.86 115.078 205.029C114.525 205.199 113.942 205.283 113.33 205.283C111.722 205.283 110.394 204.717 109.346 203.584C108.298 202.445 107.773 200.99 107.773 199.219C107.773 197.467 108.304 196.012 109.365 194.854C110.426 193.695 111.761 193.115 113.369 193.115C113.799 193.115 114.235 193.167 114.678 193.271C115.127 193.376 115.599 193.532 116.094 193.74ZM123.008 200H127.002L124.902 194.824L123.008 200ZM123.506 194.824H122.08C121.683 194.824 121.403 194.772 121.24 194.668C121.084 194.557 121.006 194.375 121.006 194.121C121.006 193.854 121.074 193.672 121.211 193.574C121.354 193.47 121.738 193.418 122.363 193.418H125.146C125.505 193.418 125.745 193.467 125.869 193.564C125.999 193.656 126.117 193.828 126.221 194.082L130.039 203.623H130.205C130.557 203.623 130.798 203.672 130.928 203.77C131.058 203.867 131.123 204.043 131.123 204.297C131.123 204.564 131.061 204.749 130.938 204.854C130.814 204.951 130.583 205 130.244 205H127.588C127.093 205 126.774 204.951 126.631 204.854C126.494 204.749 126.426 204.564 126.426 204.297C126.426 204.049 126.501 203.877 126.65 203.779C126.807 203.675 127.096 203.623 127.52 203.623H128.428L127.48 201.299H122.52L121.68 203.623H122.627C123.057 203.623 123.35 203.675 123.506 203.779C123.662 203.877 123.74 204.049 123.74 204.297C123.74 204.564 123.669 204.749 123.525 204.854C123.389 204.951 123.083 205 122.607 205H120.039C119.622 205 119.346 204.951 119.209 204.854C119.072 204.749 119.004 204.564 119.004 204.297C119.004 204.043 119.072 203.867 119.209 203.77C119.346 203.672 119.609 203.623 120 203.623H120.186L123.506 194.824ZM140.713 201.064C140.713 200.576 140.762 200.26 140.859 200.117C140.957 199.974 141.143 199.902 141.416 199.902C141.65 199.902 141.826 199.964 141.943 200.088C142.061 200.205 142.119 200.391 142.119 200.645V201.064V204.277C142.119 204.505 142.057 204.684 141.934 204.814C141.81 204.938 141.637 205 141.416 205H132.754H132.295C132.061 205 131.885 204.941 131.768 204.824C131.65 204.707 131.592 204.531 131.592 204.297C131.592 204.036 131.66 203.861 131.797 203.77C131.94 203.672 132.259 203.623 132.754 203.623H133.975V194.824H132.754C132.272 194.824 131.956 194.775 131.807 194.678C131.663 194.574 131.592 194.388 131.592 194.121C131.592 193.88 131.65 193.704 131.768 193.594C131.891 193.477 132.08 193.418 132.334 193.418H132.754H137.158H137.617C137.852 193.418 138.031 193.477 138.154 193.594C138.278 193.711 138.34 193.887 138.34 194.121C138.34 194.388 138.265 194.574 138.115 194.678C137.972 194.775 137.653 194.824 137.158 194.824H135.518V203.623H140.713V201.064Z" fill="black"/>
<path d="M240.623 201.641C240.623 202.331 240.838 202.891 241.268 203.32C241.704 203.75 242.28 203.965 242.996 203.965C243.719 203.965 244.295 203.757 244.725 203.34C245.161 202.923 245.379 202.37 245.379 201.68C245.379 201.003 245.158 200.456 244.715 200.039C244.272 199.616 243.699 199.404 242.996 199.404C242.299 199.404 241.73 199.613 241.287 200.029C240.844 200.439 240.623 200.977 240.623 201.641ZM240.721 195.82C240.721 196.465 240.932 196.992 241.355 197.402C241.785 197.812 242.332 198.018 242.996 198.018C243.667 198.018 244.214 197.812 244.637 197.402C245.066 196.986 245.281 196.452 245.281 195.801C245.281 195.176 245.066 194.661 244.637 194.258C244.214 193.848 243.667 193.643 242.996 193.643C242.326 193.643 241.779 193.848 241.355 194.258C240.932 194.661 240.721 195.182 240.721 195.82ZM241.043 198.682C240.411 198.369 239.936 197.975 239.617 197.5C239.298 197.018 239.139 196.458 239.139 195.82C239.139 194.811 239.5 193.984 240.223 193.34C240.945 192.689 241.87 192.363 242.996 192.363C244.103 192.363 245.024 192.689 245.76 193.34C246.495 193.991 246.863 194.785 246.863 195.723C246.863 196.419 246.707 197.008 246.395 197.49C246.082 197.972 245.597 198.369 244.939 198.682C245.597 198.949 246.102 199.342 246.453 199.863C246.805 200.378 246.98 200.983 246.98 201.68C246.98 202.754 246.609 203.63 245.867 204.307C245.132 204.984 244.174 205.322 242.996 205.322C241.818 205.322 240.861 204.98 240.125 204.297C239.389 203.613 239.021 202.728 239.021 201.641C239.021 200.977 239.197 200.387 239.549 199.873C239.9 199.352 240.398 198.955 241.043 198.682ZM252.908 201.201C252.908 202.002 253.12 202.656 253.543 203.164C253.966 203.665 254.51 203.916 255.174 203.916C255.799 203.916 256.31 203.678 256.707 203.203C257.111 202.728 257.312 202.106 257.312 201.338C257.312 200.544 257.104 199.899 256.688 199.404C256.277 198.91 255.747 198.662 255.096 198.662C254.464 198.662 253.94 198.9 253.523 199.375C253.113 199.85 252.908 200.459 252.908 201.201ZM252.693 198.604C253.045 198.148 253.436 197.806 253.865 197.578C254.295 197.35 254.764 197.236 255.271 197.236C256.3 197.236 257.173 197.624 257.889 198.398C258.611 199.173 258.973 200.127 258.973 201.26C258.973 202.445 258.624 203.418 257.928 204.18C257.231 204.941 256.339 205.322 255.252 205.322C253.969 205.322 252.941 204.814 252.166 203.799C251.398 202.777 251.014 201.416 251.014 199.717C251.014 197.503 251.583 195.726 252.723 194.385C253.862 193.037 255.366 192.363 257.234 192.363C257.866 192.363 258.283 192.409 258.484 192.5C258.686 192.591 258.787 192.764 258.787 193.018C258.787 193.434 258.403 193.649 257.635 193.662C257.127 193.669 256.72 193.701 256.414 193.76C255.385 193.955 254.549 194.473 253.904 195.312C253.266 196.146 252.863 197.243 252.693 198.604ZM268.543 198.281C269.305 198.49 269.894 198.87 270.311 199.424C270.734 199.971 270.945 200.641 270.945 201.436C270.945 202.575 270.542 203.509 269.734 204.238C268.927 204.961 267.882 205.322 266.6 205.322C265.61 205.322 264.728 205.133 263.953 204.756C263.185 204.372 262.801 203.952 262.801 203.496C262.801 203.301 262.869 203.141 263.006 203.018C263.149 202.887 263.322 202.822 263.523 202.822C263.634 202.822 264.035 202.988 264.725 203.32C265.421 203.652 266.069 203.818 266.668 203.818C267.443 203.818 268.071 203.597 268.553 203.154C269.041 202.712 269.285 202.139 269.285 201.436C269.285 200.856 269.116 200.368 268.777 199.971C268.445 199.567 267.986 199.31 267.4 199.199C267.225 199.167 266.993 199.141 266.707 199.121C266.16 199.089 265.887 198.861 265.887 198.438C265.887 198.053 266.154 197.829 266.688 197.764C266.896 197.744 267.068 197.721 267.205 197.695C267.713 197.617 268.123 197.409 268.436 197.07C268.748 196.732 268.904 196.322 268.904 195.84C268.904 195.221 268.712 194.717 268.328 194.326C267.944 193.936 267.456 193.74 266.863 193.74C266.316 193.74 265.753 193.91 265.174 194.248C264.601 194.587 264.243 194.756 264.1 194.756C263.917 194.756 263.764 194.697 263.641 194.58C263.523 194.463 263.465 194.316 263.465 194.141C263.465 193.743 263.829 193.35 264.559 192.959C265.288 192.562 266.095 192.363 266.98 192.363C267.996 192.363 268.839 192.673 269.51 193.291C270.187 193.903 270.525 194.658 270.525 195.557C270.525 196.24 270.363 196.803 270.037 197.246C269.718 197.689 269.22 198.034 268.543 198.281Z" fill="black"/>
<rect x="71" y="214" width="259" height="85" fill="url(#pattern0_0_1)"/>
<rect x="152" y="218" width="83" height="20" fill="white"/>
<path d="M156 233C156 230.878 156.843 228.843 158.343 227.343C159.843 225.843 161.878 225 164 225C166.122 225 168.157 225.843 169.657 227.343C171.157 228.843 172 230.878 172 233" stroke="black" stroke-width="1.5"/>
<path d="M156 223L158 225M164 221V223.5" stroke="black"/>
<path d="M172 223L170 225" stroke="black"/>
<path d="M154 233H174" stroke="black" stroke-width="1.5"/>
<path d="M182.782 221.483V232.066H184.734C185.2 232.066 185.53 232.158 185.725 232.34C185.926 232.516 186.026 232.749 186.026 233.038C186.026 233.321 185.926 233.554 185.725 233.736C185.53 233.912 185.2 234 184.734 234H178.896C178.43 234 178.097 233.912 177.896 233.736C177.701 233.554 177.603 233.318 177.603 233.028C177.603 232.746 177.701 232.516 177.896 232.34C178.097 232.158 178.43 232.066 178.896 232.066H180.848V224.002L179.122 224.455C178.845 224.53 178.638 224.568 178.5 224.568C178.254 224.568 178.041 224.47 177.858 224.275C177.682 224.08 177.594 223.841 177.594 223.559C177.594 223.301 177.66 223.099 177.792 222.955C177.924 222.804 178.201 222.672 178.622 222.559L182.782 221.483ZM195.172 227.822C195.669 228.205 196.04 228.642 196.285 229.133C196.536 229.617 196.662 230.152 196.662 230.736C196.662 231.384 196.502 231.982 196.181 232.529C195.867 233.069 195.37 233.497 194.691 233.811C194.012 234.126 193.257 234.283 192.427 234.283C191.597 234.283 190.849 234.126 190.182 233.811C189.516 233.497 189.022 233.066 188.701 232.519C188.387 231.972 188.23 231.378 188.23 230.736C188.23 230.152 188.352 229.617 188.598 229.133C188.849 228.642 189.223 228.205 189.72 227.822C189.286 227.419 188.959 226.992 188.739 226.539C188.519 226.086 188.409 225.608 188.409 225.105C188.409 224.118 188.786 223.269 189.541 222.559C190.295 221.842 191.264 221.483 192.446 221.483C193.628 221.483 194.597 221.842 195.351 222.559C196.106 223.269 196.483 224.118 196.483 225.105C196.483 225.615 196.373 226.096 196.153 226.549C195.939 227.001 195.612 227.426 195.172 227.822ZM194.502 225.143C194.502 224.665 194.314 224.26 193.936 223.926C193.565 223.587 193.062 223.417 192.427 223.417C191.786 223.417 191.276 223.587 190.899 223.926C190.528 224.26 190.343 224.665 190.343 225.143C190.343 225.627 190.528 226.039 190.899 226.379C191.276 226.712 191.786 226.879 192.427 226.879C193.062 226.879 193.565 226.712 193.936 226.379C194.314 226.039 194.502 225.627 194.502 225.143ZM194.729 230.831C194.729 230.321 194.509 229.862 194.068 229.454C193.634 229.039 193.094 228.831 192.446 228.831C191.798 228.831 191.254 229.039 190.814 229.454C190.38 229.862 190.163 230.328 190.163 230.85C190.163 231.252 190.352 231.604 190.729 231.906C191.107 232.202 191.679 232.349 192.446 232.349C193.219 232.349 193.792 232.202 194.163 231.906C194.54 231.604 194.729 231.246 194.729 230.831ZM204.525 226.728C204.525 227.092 204.396 227.397 204.138 227.643C203.88 227.888 203.525 228.011 203.072 228.011C202.62 228.011 202.264 227.888 202.007 227.643C201.749 227.397 201.62 227.092 201.62 226.728C201.62 226.363 201.749 226.058 202.007 225.813C202.264 225.568 202.62 225.445 203.072 225.445C203.525 225.445 203.88 225.568 204.138 225.813C204.396 226.058 204.525 226.363 204.525 226.728ZM204.544 233.057C204.544 233.421 204.415 233.726 204.157 233.972C203.899 234.217 203.544 234.34 203.091 234.34C202.638 234.34 202.283 234.217 202.025 233.972C201.768 233.726 201.639 233.421 201.639 233.057C201.639 232.692 201.768 232.387 202.025 232.142C202.283 231.897 202.638 231.774 203.091 231.774C203.544 231.774 203.899 231.897 204.157 232.142C204.415 232.387 204.544 232.692 204.544 233.057ZM214.689 221.483V232.066H216.642C217.107 232.066 217.437 232.158 217.632 232.34C217.833 232.516 217.934 232.749 217.934 233.038C217.934 233.321 217.833 233.554 217.632 233.736C217.437 233.912 217.107 234 216.642 234H210.803C210.338 234 210.004 233.912 209.803 233.736C209.608 233.554 209.511 233.318 209.511 233.028C209.511 232.746 209.608 232.516 209.803 232.34C210.004 232.158 210.338 232.066 210.803 232.066H212.755V224.002L211.029 224.455C210.753 224.53 210.545 224.568 210.407 224.568C210.162 224.568 209.948 224.47 209.765 224.275C209.589 224.08 209.501 223.841 209.501 223.559C209.501 223.301 209.567 223.099 209.699 222.955C209.831 222.804 210.108 222.672 210.529 222.559L214.689 221.483ZM227.098 227.539C227.67 227.929 228.098 228.382 228.381 228.897C228.664 229.407 228.805 229.979 228.805 230.614C228.805 231.299 228.617 231.934 228.239 232.519C227.868 233.098 227.328 233.538 226.617 233.84C225.907 234.135 224.976 234.283 223.825 234.283C222.329 234.283 221.203 234.05 220.448 233.585C220.027 233.321 219.816 233.006 219.816 232.642C219.816 232.365 219.908 232.132 220.09 231.944C220.279 231.749 220.505 231.651 220.769 231.651C220.951 231.651 221.14 231.714 221.335 231.84C221.612 232.029 221.873 232.154 222.118 232.217C222.495 232.305 223.014 232.349 223.674 232.349C224.8 232.349 225.614 232.205 226.117 231.915C226.62 231.62 226.872 231.205 226.872 230.67C226.872 230.274 226.724 229.894 226.428 229.529C226.139 229.158 225.749 228.872 225.259 228.671C224.976 228.558 224.498 228.479 223.825 228.435C223.504 228.416 223.256 228.319 223.08 228.143C222.91 227.96 222.825 227.737 222.825 227.473C222.825 227.196 222.92 226.964 223.108 226.775C223.297 226.586 223.536 226.492 223.825 226.492C224.467 226.492 224.809 226.489 224.853 226.483C225.105 226.457 225.356 226.376 225.608 226.237C225.859 226.099 226.061 225.91 226.211 225.671C226.369 225.426 226.447 225.175 226.447 224.917C226.447 224.508 226.265 224.156 225.9 223.86C225.542 223.559 225.001 223.408 224.278 223.408C223.347 223.408 222.637 223.678 222.146 224.219C222.002 224.376 221.885 224.477 221.797 224.521C221.665 224.59 221.517 224.624 221.354 224.624C221.09 224.624 220.863 224.53 220.675 224.341C220.486 224.153 220.392 223.92 220.392 223.643C220.392 223.21 220.681 222.788 221.26 222.38C222.102 221.782 223.155 221.483 224.419 221.483C225.614 221.483 226.573 221.823 227.296 222.502C228.019 223.181 228.381 223.999 228.381 224.954C228.381 225.451 228.274 225.917 228.06 226.35C227.846 226.778 227.526 227.174 227.098 227.539Z" fill="black"/>
<path d="M80 272.42L84 272.25L88 272.04L92 271.77L96 271.45L100 271.06L104 270.6L108 270.05L112 269.42L116 268.69L120 267.86L124 266.93L128 265.9L132 264.77L136 263.55L140 262.26L144 260.9L148 259.5L152 258.08L156 256.67L160 255.3L164 253.99L168 252.78L172 251.69L176 250.76L180 250.01L184 249.45L188 249.11L192 249L196 249.11L200 249.45L204 250.01L208 250.76L212 251.69L216 252.77L220 253.98L224 255.29L228 256.66L232 258.06L236 259.47L240 260.85L244 262.18L248 263.45L252 264.62L256 265.68L260 266.62L264 267.43L268 268.11L272 268.64L276 269.02L280 269.25L284 269.33L288 269.26L292 269.05L296 268.69L300 268.21L304 267.62L308 266.93L312 266.16L316 265.36L320 264.53L324 263.72L328 262.97L332 262.3L336 261.74L340 261.32L344 261.07L348 260.98L352 261.08L356 261.35L360 261.78" stroke="black" stroke-width="2"/>
<circle cx="227" cy="257" r="3" fill="white" stroke="black" stroke-width="2"/>
</g>
<defs>
<pattern id="pattern0_0_1" patternUnits="userSpaceOnUse" patternTransform="matrix(4.32 0 0 4.32 199.3 214)" preserveAspectRatio="none" viewBox="0 0 14.4 14.4" width="1" height="1">
<g id="pattern0_0_1_inner">
<circle cx="4" cy="4" r="4" fill="black"/>
</g>
</pattern></defs>
</svg>
